#N canvas 235 103 646 378 10;
#X obj 72 295 rj_image \$1;
#X msg 72 204 move 500 500;
#X obj 72 45 inlet;
#X obj 72 169 select 0 1;
#X obj 189 202 list append \$2 \$3;
#X msg 189 231 move \$1 \$2;
#X obj 398 60 inlet;
#X obj 398 90 u_dispatch \$0 pos;
#X obj 305 173 r \$0-pos;
#X obj 398 115 u_dispatch \$0 show;
#X obj 119 43 r \$0-show;
#X obj 119 114 f;
#X obj 135 68 loadbang;
#X msg 135 91 0;
#X obj 398 135 u_dispatch \$0 move;
#X obj 189 149 r \$0-move;
#X obj 189 172 t b a;
#X obj 442 60 u_dispatch g_showimage-\$1;
#X connect 1 0 0 0;
#X connect 2 0 3 0;
#X connect 3 0 1 0;
#X connect 3 1 4 0;
#X connect 4 0 5 0;
#X connect 5 0 0 0;
#X connect 6 0 7 0;
#X connect 7 0 9 0;
#X connect 8 0 4 1;
#X connect 9 0 14 0;
#X connect 10 0 11 0;
#X connect 11 0 3 0;
#X connect 12 0 13 0;
#X connect 13 0 11 0;
#X connect 15 0 16 0;
#X connect 16 0 4 0;
#X connect 16 1 4 1;
