#N canvas 291 28 895 506 10;
#X obj 102 107 inlet;
#X obj 102 345 outlet;
#X obj 257 109 inlet;
#X obj 257 347 outlet;
#X obj 427 105 inlet;
#X obj 480 104 u_loader m_touch2grid-\$1 \$0;
#X obj 427 166 u_dispatch \$0 xdiv;
#X obj 427 187 u_dispatch \$0 ydiv;
#X obj 702 158 loadbang;
#X obj 150 180 r \$0-xdiv;
#X obj 305 182 r \$0-ydiv;
#X msg 702 224 xdiv \$1 \, ydiv \$2;
#X obj 447 136 r \$0-init;
#X obj 702 245 s \$0-init;
#X obj 305 219 f \$3;
#X obj 702 195 pack \$2 \$3;
#X obj 427 206 u_dispatch \$0 div;
#X obj 631 157 r \$0-div;
#X obj 257 319 int;
#X obj 102 321 int;
#X obj 305 266 / 320;
#X obj 257 294 *;
#X obj 150 266 / 320;
#X obj 102 294 *;
#X obj 150 219 f \$2;
#X connect 0 0 23 0;
#X connect 2 0 21 0;
#X connect 4 0 6 0;
#X connect 6 0 7 0;
#X connect 7 0 16 0;
#X connect 8 0 15 0;
#X connect 9 0 24 0;
#X connect 10 0 14 0;
#X connect 11 0 13 0;
#X connect 12 0 6 0;
#X connect 14 0 20 0;
#X connect 15 0 11 0;
#X connect 17 0 11 0;
#X connect 18 0 3 0;
#X connect 19 0 1 0;
#X connect 20 0 21 1;
#X connect 21 0 18 0;
#X connect 22 0 23 1;
#X connect 23 0 19 0;
#X connect 24 0 22 0;
