#N canvas 802 145 296 279 10;
#N canvas 0 0 682 744 \$0-overview 0;
#X restore 85 182 pd \$0-overview;
#N canvas 337 123 516 608 dump 0;
#X obj 94 243 textfile;
#X obj 94 277 t a b;
#X obj 128 351 f;
#X obj 160 352 + 1;
#X obj 240 543 s pd-\$0-overview;
#X obj 94 401 list;
#X msg 172 247 1;
#X obj 94 211 until;
#X obj 74 41 inlet;
#X obj 74 76 list;
#X msg 258 199 print;
#X msg 115 184 read \$1 cr \, rewind;
#X msg 239 247 clear;
#X msg 94 423 obj 100 \$2 \$1;
#X obj 239 42 inlet;
#X obj 128 374 * 45;
#X msg 74 113 symbol \$1.txt;
#X obj 74 152 t b b a b;
#X obj 94 302 list split 1;
#X obj 264 434 list prepend 0;
#X obj 264 476 list trim;
#X obj 197 354 route bang;
#X obj 264 454 list prepend text 250;
#X msg 74 477 vis 0 \, vis 1;
#X connect 0 0 1 0;
#X connect 0 1 7 1;
#X connect 1 0 18 0;
#X connect 1 1 2 0;
#X connect 2 0 3 0;
#X connect 2 0 15 0;
#X connect 3 0 2 1;
#X connect 5 0 13 0;
#X connect 6 0 2 1;
#X connect 7 0 0 0;
#X connect 8 0 9 0;
#X connect 9 0 16 0;
#X connect 10 0 0 0;
#X connect 11 0 0 0;
#X connect 12 0 4 0;
#X connect 13 0 4 0;
#X connect 14 0 12 0;
#X connect 15 0 5 1;
#X connect 15 0 19 1;
#X connect 16 0 17 0;
#X connect 17 0 23 0;
#X connect 17 1 7 0;
#X connect 17 2 11 0;
#X connect 17 3 12 0;
#X connect 17 3 6 0;
#X connect 18 0 5 0;
#X connect 18 1 21 0;
#X connect 19 0 22 0;
#X connect 20 0 4 0;
#X connect 21 1 19 0;
#X connect 22 0 20 0;
#X connect 23 0 4 0;
#X restore 84 154 pd dump;
#X msg 110 33 s;
#X text 138 33 ynths;
#X msg 110 54 e;
#X text 138 54 ffects;
#X msg 111 77 m;
#X text 139 77 appings;
#X msg 111 99 c;
#X text 139 99 controllers;
#X msg 111 122 u;
#X text 139 122 tilities;
#X msg 143 154 clear;
#X text 85 211 Help-click any object to;
#X text 84 229 open the help file!;
#X connect 2 0 1 0;
#X connect 4 0 1 0;
#X connect 6 0 1 0;
#X connect 8 0 1 0;
#X connect 10 0 1 0;
#X connect 12 0 1 1;
