#N canvas 251 345 267 376 10;
#X obj 120 258 *~;
#X obj 120 285 *~ 0.1;
#X obj 114 323 dac~;
#X obj 158 217 osc~ 220;
#X obj 158 167 mtof;
#X floatatom 158 189 5 0 0 0 - - -;
#X obj 43 170 vline~;
#X msg 43 148 \$1 10 \, 0 500 10;
#X obj 90 48 notein 1;
#X obj 43 120 / 127;
#X text 16 16 Simple MIDI synthesizer;
#X connect 0 0 1 0;
#X connect 1 0 2 0;
#X connect 1 0 2 1;
#X connect 3 0 0 1;
#X connect 4 0 5 0;
#X connect 5 0 3 0;
#X connect 6 0 0 0;
#X connect 7 0 6 0;
#X connect 8 0 4 0;
#X connect 8 1 9 0;
#X connect 9 0 7 0;
