#N canvas 251 345 388 281 10;
#X obj 116 189 *~;
#X obj 116 216 *~ 0.1;
#X obj 110 254 dac~;
#X obj 154 148 osc~ 220;
#X floatatom 154 79 5 0 0 1 r:midinote midinote -;
#X obj 154 98 mtof;
#X floatatom 154 120 5 0 0 0 - - -;
#X floatatom 156 44 5 0 0 1 s:midinote - midinote;
#X text 16 16 Simple synthesizer;
#X obj 48 43 bng 15 250 50 0 empty empty trigger 17 7 0 10 -262144
-1 -1;
#X msg 48 78 1 10 \, 0 500 10;
#X obj 48 100 vline~;
#X connect 0 0 1 0;
#X connect 1 0 2 0;
#X connect 1 0 2 1;
#X connect 3 0 0 1;
#X connect 4 0 5 0;
#X connect 5 0 6 0;
#X connect 6 0 3 0;
#X connect 9 0 10 0;
#X connect 10 0 11 0;
#X connect 11 0 0 0;
