#N canvas 251 345 207 266 10;
#X obj 87 145 *~;
#X obj 87 172 *~ 0.1;
#X obj 81 210 dac~;
#X obj 27 48 bng 15 250 50 0 empty empty trigger 17 7 0 10 -262144
-1 -1;
#X msg 27 76 1 10 \, 0 500 10;
#X obj 27 98 vline~;
#X text 16 16 Simple percussion;
#X obj 125 104 noise~;
#X connect 0 0 1 0;
#X connect 1 0 2 0;
#X connect 1 0 2 1;
#X connect 3 0 4 0;
#X connect 4 0 5 0;
#X connect 5 0 0 0;
#X connect 7 0 0 1;
