#N canvas 251 345 388 281 10;
#X obj 45 129 adc~;
#X obj 85 171 *~;
#X obj 85 198 *~ 0.1;
#X obj 79 236 dac~;
#X obj 123 130 osc~ 220;
#X floatatom 123 61 5 0 0 1 r:midinote midinote -;
#X obj 123 80 mtof;
#X floatatom 123 102 5 0 0 0 - - -;
#X floatatom 264 24 5 0 0 1 s:midinote - midinote;
#X text 16 16 Using send and receive symbols;
#X connect 0 0 1 0;
#X connect 0 1 1 0;
#X connect 1 0 2 0;
#X connect 2 0 3 0;
#X connect 2 0 3 1;
#X connect 4 0 1 1;
#X connect 5 0 6 0;
#X connect 6 0 7 0;
#X connect 7 0 4 0;
