#N canvas 469 169 759 710 10;
#X obj 18 19 loadbang;
#N canvas 527 107 515 589 timing 0;
#X obj 33 15 inlet;
#X obj 65 180 /;
#X msg 65 158 60000 \$1;
#X obj 33 302 metro 125;
#X obj 65 200 / 4;
#X obj 65 344 f 0;
#X obj 94 344 + 1;
#X obj 124 341 % 16;
#X obj 33 321 t b b;
#X obj 33 37 t a b;
#X obj 33 535 s tick;
#X obj 103 176 r ticks_per_beat;
#X obj 149 317 r ticks_per_bar;
#X obj 167 36 r bpm;
#X obj 65 58 list append 120;
#X obj 65 222 t a a;
#X obj 119 264 s tick(ms);
#X obj 33 398 f;
#X obj 119 243 f;
#X obj 119 198 r restore;
#X obj 33 425 t a a;
#X obj 70 479 mod 4;
#X obj 114 408 r ticks_per_beat;
#X obj 82 524 s beat;
#X obj 69 456 / 4;
#X obj 82 502 change;
#X obj 119 221 del 0;
#X connect 0 0 9 0;
#X connect 1 0 4 0;
#X connect 2 0 1 0;
#X connect 3 0 8 0;
#X connect 4 0 15 0;
#X connect 5 0 6 0;
#X connect 5 0 17 1;
#X connect 6 0 7 0;
#X connect 7 0 5 1;
#X connect 8 0 17 0;
#X connect 8 1 5 0;
#X connect 9 0 3 0;
#X connect 9 1 14 0;
#X connect 11 0 4 1;
#X connect 12 0 7 1;
#X connect 13 0 14 1;
#X connect 14 0 2 0;
#X connect 15 0 3 1;
#X connect 15 1 18 0;
#X connect 17 0 20 0;
#X connect 18 0 16 0;
#X connect 19 0 26 0;
#X connect 20 0 10 0;
#X connect 20 1 24 0;
#X connect 21 0 25 0;
#X connect 22 0 21 1;
#X connect 22 0 24 1;
#X connect 24 0 21 0;
#X connect 25 0 23 0;
#X connect 26 0 18 0;
#X restore 18 206 pd timing;
#X obj 18 153 tgl 15 0 empty empty empty 17 7 0 10 -262144 -1 -1 1
1;
#X obj 16 309 soundinput;
#X obj 16 350 s~ inleft;
#X obj 84 350 s~ inright;
#X obj 17 460 catch~ sumL;
#X obj 90 481 catch~ sumR;
#N canvas 556 482 414 369 busses 0;
#X obj 37 60 bus 1;
#X obj 161 59 bus 2;
#X obj 37 297 return;
#X obj 161 298 return;
#X obj 35 167 balance bal1;
#X obj 160 165 balance bal2;
#X obj 277 302 return;
#X obj 277 63 bus 3;
#N canvas 362 223 450 300 delay 0;
#X obj 57 73 inlet~;
#X obj 60 208 outlet~;
#X obj 203 71 inlet~;
#X obj 210 204 outlet~;
#X obj 74 171 delread~ yoL 250;
#X obj 226 159 delread~ yoR 250;
#X obj 72 124 delwrite~ yoL 10050;
#X obj 226 123 delwrite~ yoR 10050;
#X obj 312 215 r tick(ms);
#X obj 365 146 *~ 0.5;
#X obj 113 147 *~ 0.5;
#X obj 312 240 * 2.999;
#X obj 374 241 * 3.001;
#X connect 0 0 1 0;
#X connect 0 0 6 0;
#X connect 2 0 3 0;
#X connect 2 0 7 0;
#X connect 4 0 1 0;
#X connect 4 0 9 0;
#X connect 5 0 3 0;
#X connect 5 0 10 0;
#X connect 8 0 11 0;
#X connect 8 0 12 0;
#X connect 9 0 7 0;
#X connect 10 0 6 0;
#X connect 11 0 4 0;
#X connect 12 0 5 0;
#X restore 277 168 pd delay;
#X obj 277 244 *~ 0.6;
#X obj 330 245 *~ 0.6;
#X connect 0 0 4 0;
#X connect 0 1 4 1;
#X connect 1 0 5 0;
#X connect 1 1 5 1;
#X connect 4 0 2 0;
#X connect 4 1 2 1;
#X connect 5 0 3 0;
#X connect 5 1 3 1;
#X connect 7 0 8 0;
#X connect 7 1 8 1;
#X connect 8 0 9 0;
#X connect 8 1 10 0;
#X connect 9 0 6 0;
#X connect 10 0 6 1;
#X restore 297 250 pd busses;
#X text 294 178 edit those:;
#N canvas 27 303 316 265 players 0;
#X obj 8 21 samplelooper 1;
#X obj 180 28 r player;
#X obj 180 50 route get_free;
#X msg 180 93 free \$1;
#X obj 180 116 s player;
#N canvas 0 0 298 400 get_free 0;
#X obj 65 12 inlet;
#X obj 65 370 outlet;
#X obj 112 195 s player;
#X obj 112 214 r player;
#X obj 112 235 route state;
#X obj 88 255 f;
#X msg 112 174 \$1 get_state;
#X obj 88 82 until;
#X msg 65 35 8;
#X obj 131 82 1;
#X obj 88 116 f;
#X obj 123 115 + 1;
#X obj 88 298 t b b;
#X obj 88 323 f;
#X obj 88 149 t b a a;
#X obj 65 347 f;
#X obj 65 59 t b a b b;
#X obj 222 236 0;
#X obj 88 277 sel 0;
#X connect 0 0 8 0;
#X connect 3 0 4 0;
#X connect 4 0 5 1;
#X connect 5 0 18 0;
#X connect 6 0 2 0;
#X connect 7 0 10 0;
#X connect 8 0 16 0;
#X connect 9 0 10 1;
#X connect 10 0 11 0;
#X connect 10 0 14 0;
#X connect 11 0 10 1;
#X connect 12 0 13 0;
#X connect 12 1 7 1;
#X connect 13 0 15 1;
#X connect 14 0 5 0;
#X connect 14 1 6 0;
#X connect 14 2 13 1;
#X connect 15 0 1 0;
#X connect 16 0 15 0;
#X connect 16 1 7 0;
#X connect 16 2 9 0;
#X connect 16 3 17 0;
#X connect 17 0 15 1;
#X connect 18 0 12 0;
#X restore 180 72 pd get_free;
#X obj 8 41 samplelooper 2;
#X obj 8 61 samplelooper 3;
#X obj 8 81 samplelooper 4;
#X obj 8 101 samplelooper 5;
#X obj 8 121 samplelooper 6;
#X obj 8 141 samplelooper 7;
#X obj 8 161 samplelooper 8;
#X connect 1 0 2 0;
#X connect 2 0 5 0;
#X connect 3 0 4 0;
#X connect 5 0 3 0;
#X restore 18 230 pd players;
#X obj 18 40 t b b;
#X text 77 46 --- global settings ---;
#N canvas 729 42 525 638 phases 0;
#X text 38 42 phase 0;
#X text 37 164 phase 1;
#X text 39 275 phase 2;
#X text 37 385 phase 3;
#X text 38 560 phase 4;
#X obj 34 61 randrythm 0 1 snippler1 seq1;
#X obj 35 82 randrythm 0 2 snippler2 seq2;
#X obj 35 105 routelivein 0 0 3;
#X restore 297 204 pd phases;
#X obj 95 71 r restore;
#X obj 95 93 del 0;
#N canvas 277 294 411 278 synths 0;
#X obj 20 17 snippetplayer snippler1;
#X obj 21 38 snippetplayer snippler2;
#X restore 297 228 pd synths;
#N canvas 41 373 450 300 route_audioin 0;
#X obj 17 11 r~ inleft;
#X obj 127 13 r~ inright;
#X obj 19 249 throw~ bus1L;
#X obj 127 251 throw~ bus1R;
#X obj 18 160 *~;
#X obj 127 165 *~;
#X obj 226 50 r audioin;
#X obj 226 107 route on off bus;
#X msg 227 204 set bus\$1L;
#X msg 314 204 set bus\$1R;
#X obj 225 176 line~;
#X msg 226 128 1;
#X msg 262 128 0;
#X obj 226 155 pack 0 20;
#X connect 0 0 4 0;
#X connect 1 0 5 0;
#X connect 4 0 2 0;
#X connect 5 0 3 0;
#X connect 6 0 7 0;
#X connect 7 0 11 0;
#X connect 7 1 12 0;
#X connect 7 2 8 0;
#X connect 7 2 9 0;
#X connect 8 0 2 0;
#X connect 9 0 3 0;
#X connect 10 0 5 1;
#X connect 10 0 4 1;
#X connect 11 0 13 0;
#X connect 12 0 13 0;
#X connect 13 0 10 0;
#X restore 17 381 pd route_audioin;
#X obj 28 615 soundoutput;
#X floatatom 156 520 5 0 0 0 - - -;
#N canvas 716 247 214 384 onset_detection 0;
#X obj 18 10 r~ inleft;
#X obj 18 140 t f f b;
#X obj 47 165 f;
#X obj 18 185 -;
#X obj 18 207 abs;
#X obj 18 251 sel 1;
#X msg 19 323 onset;
#X obj 19 350 s analyse;
#X obj 19 54 *~;
#X obj 108 64 line~;
#X msg 108 41 0 \, 1 200;
#X obj 108 18 loadbang;
#X obj 18 118 env~ 128;
#X obj 18 229 > 12;
#X obj 19 90 hip~ 1000;
#X connect 0 0 8 0;
#X connect 1 0 3 0;
#X connect 1 1 2 1;
#X connect 1 2 2 0;
#X connect 2 0 3 1;
#X connect 3 0 4 0;
#X connect 4 0 13 0;
#X connect 5 0 6 0;
#X connect 6 0 7 0;
#X connect 8 0 14 0;
#X connect 9 0 8 1;
#X connect 10 0 9 0;
#X connect 11 0 10 0;
#X connect 12 0 1 0;
#X connect 13 0 5 0;
#X connect 14 0 12 0;
#X restore 466 230 pd onset_detection;
#N canvas 752 128 264 154 live_to_tables 0;
#X obj 24 24 r analyse;
#X obj 24 44 route onset;
#N canvas 419 288 191 171 debounce 0;
#X msg 80 42 0;
#X msg 102 80 1;
#X obj 10 34 spigot 1;
#X obj 33 97 del 500;
#X obj 10 60 t a b b;
#X obj 10 12 inlet;
#X obj 10 121 outlet;
#X obj 141 29 inlet;
#X connect 0 0 2 1;
#X connect 1 0 2 1;
#X connect 2 0 4 0;
#X connect 3 0 1 0;
#X connect 4 0 6 0;
#X connect 4 1 3 0;
#X connect 4 2 0 0;
#X connect 5 0 2 0;
#X connect 7 0 3 1;
#X restore 24 89 pd debounce;
#X obj 114 19 r ticks(ms);
#X obj 114 63 + 20;
#X obj 24 112 outlet;
#X obj 114 42 * 12;
#X connect 0 0 1 0;
#X connect 1 0 2 0;
#X connect 2 0 5 0;
#X connect 3 0 6 0;
#X connect 4 0 2 1;
#X connect 6 0 4 0;
#X restore 321 411 pd live_to_tables;
#X obj 291 29 loadbang;
#X obj 331 80 ctrl seq1 rhythmpattern;
#X msg 331 54 2 2 1 2 2 2 1;
#X obj 480 596 ctrl seq1 shake;
#X obj 253 334 ctrl seq1 rhythmpattern;
#X msg 253 312 1 2 1 2 2 2 2;
#X msg 95 114 \; pd dsp 1 \; ticks_per_beat 6 \; ticks_per_bar 12 \;
bpm 75 \;;
#X msg 285 291 1 1 1 1 1 1 6;
#X obj 507 92 ctrl bal1 bal;
#X msg 291 111 2 3 1 2 1 3;
#X obj 291 137 ctrl seq2 rhythmpattern;
#X obj 506 147 ctrl bal2 bal;
#X obj 469 21 loadbang;
#X obj 172 660 s out;
#X msg 507 67 20;
#X msg 506 123 107;
#X obj 172 614 loadbang;
#X msg 172 635 0;
#X msg 223 635 1;
#X obj 480 617 ctrl snippler1 record;
#X obj 327 597 ctrl seq2 shake;
#X obj 321 617 ctrl snippler2 record;
#X obj 321 464 f;
#X obj 321 544 sel 0 1;
#X obj 464 395 metro 30000;
#X obj 464 416 ==;
#X obj 496 417 t a;
#X obj 464 372 loadbang;
#X obj 321 488 t a b;
#X obj 591 533 t b;
#X obj 482 534 del 15000;
#X obj 20 568 *~ 1;
#X obj 90 566 *~ 1;
#X connect 0 0 11 0;
#X connect 2 0 1 0;
#X connect 3 0 4 0;
#X connect 3 1 5 0;
#X connect 6 0 53 0;
#X connect 7 0 54 0;
#X connect 11 0 2 0;
#X connect 11 1 15 0;
#X connect 14 0 15 0;
#X connect 15 0 28 0;
#X connect 19 0 53 1;
#X connect 19 0 54 1;
#X connect 21 0 44 0;
#X connect 22 0 24 0;
#X connect 22 0 31 0;
#X connect 24 0 23 0;
#X connect 27 0 26 0;
#X connect 29 0 26 0;
#X connect 31 0 32 0;
#X connect 34 0 36 0;
#X connect 34 0 37 0;
#X connect 36 0 30 0;
#X connect 37 0 33 0;
#X connect 38 0 39 0;
#X connect 39 0 35 0;
#X connect 40 0 35 0;
#X connect 44 0 50 0;
#X connect 45 0 42 0;
#X connect 45 0 43 0;
#X connect 45 1 25 0;
#X connect 45 1 41 0;
#X connect 46 0 47 0;
#X connect 47 0 48 0;
#X connect 47 0 44 1;
#X connect 48 0 47 1;
#X connect 49 0 46 0;
#X connect 50 0 45 0;
#X connect 50 1 52 0;
#X connect 51 0 52 0;
#X connect 52 0 42 0;
#X connect 52 0 25 0;
#X connect 52 0 51 0;
#X connect 53 0 18 0;
#X connect 54 0 18 1;
