#N canvas 409 263 234 203 10;
#N canvas 318 214 183 263 magnitude 0;
#X obj 14 17 r #accelerate;
#X obj 14 48 unpack f f f;
#X obj 14 77 t f f;
#X obj 14 100 *;
#X obj 57 77 t f f;
#X obj 57 100 *;
#X obj 102 78 t f f;
#X obj 102 101 *;
#X obj 14 134 +;
#X obj 14 162 +;
#X obj 14 184 pow 0.5;
#X obj 14 231 s accelerate;
#X msg 14 207 magnitude \$1;
#X connect 0 0 1 0;
#X connect 1 0 2 0;
#X connect 1 1 4 0;
#X connect 1 2 6 0;
#X connect 2 0 3 0;
#X connect 2 1 3 1;
#X connect 3 0 8 0;
#X connect 4 0 5 0;
#X connect 4 1 5 1;
#X connect 5 0 8 1;
#X connect 6 0 7 0;
#X connect 6 1 7 1;
#X connect 7 0 9 1;
#X connect 8 0 9 0;
#X connect 9 0 10 0;
#X connect 10 0 12 0;
#X connect 12 0 11 0;
#X restore 16 22 pd magnitude;
#N canvas 250 193 297 534 pitch 0;
#X obj 14 17 r #accelerate;
#X obj 14 48 unpack f f f;
#X obj 54 490 s accelerate;
#X obj 54 111 /;
#X obj 54 137 atan;
#X obj 54 79 t a a;
#X msg 54 461 pitch \$1;
#X obj 87 111 > 0;
#X obj 87 132 sel 0 1;
#X msg 87 188 -3.14159;
#X msg 110 162 -3.14159;
#X obj 54 214 pack f f f;
#X obj 54 240 t a a a;
#X msg 54 277 \$3;
#X obj 54 299 <= 0;
#X obj 54 326 sel 1 0;
#X obj 117 278 t a a;
#X msg 117 302 \$1;
#X msg 149 302 \$2;
#X obj 117 327 f;
#X msg 218 308 \$1;
#X obj 54 390 f;
#X obj 117 393 f;
#X obj 54 425 * -1;
#X connect 0 0 1 0;
#X connect 1 1 5 0;
#X connect 1 2 3 1;
#X connect 1 2 11 2;
#X connect 3 0 4 0;
#X connect 4 0 11 0;
#X connect 5 0 3 0;
#X connect 5 1 7 0;
#X connect 6 0 2 0;
#X connect 7 0 8 0;
#X connect 8 0 9 0;
#X connect 8 1 10 0;
#X connect 9 0 11 1;
#X connect 10 0 11 1;
#X connect 11 0 12 0;
#X connect 12 0 13 0;
#X connect 12 1 16 0;
#X connect 12 2 20 0;
#X connect 13 0 14 0;
#X connect 14 0 15 0;
#X connect 15 0 21 0;
#X connect 15 1 22 0;
#X connect 16 0 17 0;
#X connect 16 1 18 0;
#X connect 17 0 19 0;
#X connect 18 0 19 0;
#X connect 19 0 21 1;
#X connect 20 0 22 1;
#X connect 21 0 23 0;
#X connect 22 0 23 0;
#X connect 23 0 6 0;
#X restore 16 45 pd pitch;
#N canvas 250 193 295 556 roll 0;
#X obj 14 17 r #accelerate;
#X obj 14 48 unpack f f f;
#X obj 14 487 s accelerate;
#X msg 14 458 roll \$1;
#X obj 14 99 /;
#X obj 66 104 sel 0 1;
#X msg 66 155 -3.14159;
#X msg 89 134 -3.14159;
#X obj 14 73 t a a;
#X obj 14 123 atan;
#X obj 14 190 pack f f f;
#X obj 14 233 t a a a;
#X msg 14 270 \$3;
#X obj 14 292 <= 0;
#X obj 14 319 sel 1 0;
#X obj 77 271 t a a;
#X msg 77 295 \$1;
#X msg 109 295 \$2;
#X obj 77 320 f;
#X msg 178 301 \$1;
#X obj 14 383 f;
#X obj 77 386 f;
#X obj 14 415 f;
#X connect 0 0 1 0;
#X connect 1 0 8 0;
#X connect 1 2 4 1;
#X connect 1 2 10 2;
#X connect 3 0 2 0;
#X connect 4 0 9 0;
#X connect 5 0 6 0;
#X connect 5 1 7 0;
#X connect 6 0 10 1;
#X connect 7 0 10 1;
#X connect 8 0 4 0;
#X connect 8 1 5 0;
#X connect 9 0 10 0;
#X connect 10 0 11 0;
#X connect 11 0 12 0;
#X connect 11 1 15 0;
#X connect 11 2 19 0;
#X connect 12 0 13 0;
#X connect 13 0 14 0;
#X connect 14 0 20 0;
#X connect 14 1 21 0;
#X connect 15 0 16 0;
#X connect 15 1 17 0;
#X connect 16 0 18 0;
#X connect 17 0 18 0;
#X connect 18 0 20 1;
#X connect 19 0 21 1;
#X connect 20 0 22 0;
#X connect 21 0 22 0;
#X connect 22 0 3 0;
#X restore 16 69 pd roll;
#X text 13 182 Author: Roman Haefeli;
#N canvas 318 214 163 170 x_y_z 0;
#X obj 14 17 r #accelerate;
#X obj 14 48 unpack f f f;
#X obj 14 111 s accelerate;
#X msg 14 85 x \$1;
#X msg 54 85 y \$1;
#X msg 95 86 z \$1;
#X connect 0 0 1 0;
#X connect 1 0 3 0;
#X connect 1 1 4 0;
#X connect 1 2 5 0;
#X connect 3 0 2 0;
#X connect 4 0 2 0;
#X connect 5 0 2 0;
#X restore 16 91 pd x_y_z;
#X text 12 163 Version: 2008-07-14;
