#N canvas 398 275 286 300 10;
#X obj 7 9 inlet;
#X obj 7 203 outlet;
#X obj 61 205 outlet;
#X obj 7 34 t a b;
#X obj 39 60 f;
#X obj 39 82 mod 2;
#X obj 7 145 list prepend;
#X obj 106 74 + 1;
#X obj 7 169 route 0 1 -1;
#X obj 39 109 spigot 1;
#X obj 182 34 inlet;
#X msg 182 113 -1;
#X obj 182 61 t a a;
#X obj 182 89 sel 0;
#X connect 0 0 3 0;
#X connect 3 0 6 0;
#X connect 3 1 4 0;
#X connect 4 0 5 0;
#X connect 5 0 7 0;
#X connect 5 0 9 0;
#X connect 6 0 8 0;
#X connect 7 0 4 1;
#X connect 8 0 1 0;
#X connect 8 1 2 0;
#X connect 8 2 1 0;
#X connect 8 2 2 0;
#X connect 9 0 6 1;
#X connect 10 0 12 0;
#X connect 11 0 6 1;
#X connect 12 0 13 0;
#X connect 12 1 9 1;
#X connect 13 0 11 0;
