#N canvas 278 224 422 352 10;
#X obj 46 202 inlet~;
#X obj 45 261 outlet~;
#X obj 45 234 *~;
#X obj 134 204 inlet~;
#X obj 133 263 outlet~;
#X obj 133 236 *~;
#X obj 62 12 lrtc \$1 bal;
#X obj 62 129 clip 0 1;
#X obj 62 82 * -1;
#X obj 62 104 + 2;
#X obj 160 130 clip 0 1;
#X obj 62 52 / 63;
#X msg 62 152 \$1 20;
#X obj 62 175 line~;
#X msg 159 152 \$1 20;
#X obj 159 175 line~;
#X obj 157 10 loadbang;
#X msg 157 32 63;
#X connect 0 0 2 0;
#X connect 2 0 1 0;
#X connect 3 0 5 0;
#X connect 5 0 4 0;
#X connect 6 0 11 0;
#X connect 7 0 12 0;
#X connect 8 0 9 0;
#X connect 9 0 7 0;
#X connect 10 0 14 0;
#X connect 11 0 8 0;
#X connect 11 0 10 0;
#X connect 12 0 13 0;
#X connect 13 0 2 1;
#X connect 14 0 15 0;
#X connect 15 0 5 1;
#X connect 16 0 17 0;
#X connect 17 0 11 0;
