#N canvas 0 0 450 300 10;
#N canvas 362 223 450 300 delay 0;
#X obj 57 73 inlet~;
#X obj 60 208 outlet~;
#X obj 203 71 inlet~;
#X obj 210 204 outlet~;
#X obj 74 171 delread~ yoL 250;
#X obj 226 159 delread~ yoR 250;
#X obj 72 124 delwrite~ yoL 10050;
#X obj 226 123 delwrite~ yoR 10050;
#X obj 312 215 r tick(ms);
#X obj 365 146 *~ 0.5;
#X obj 113 147 *~ 0.5;
#X obj 312 240 * 2.999;
#X obj 374 241 * 3.001;
#X connect 0 0 1 0;
#X connect 0 0 6 0;
#X connect 2 0 3 0;
#X connect 2 0 7 0;
#X connect 4 0 1 0;
#X connect 4 0 9 0;
#X connect 5 0 3 0;
#X connect 5 0 10 0;
#X connect 8 0 11 0;
#X connect 8 0 12 0;
#X connect 9 0 7 0;
#X connect 10 0 6 0;
#X connect 11 0 4 0;
#X connect 12 0 5 0;
#X restore 113 132 pd delay;
