#N canvas 0 0 397 397 10;
#X obj 129 61 mod;
#X obj 129 81 sel 0;
#X obj 129 104 f;
#X obj 129 126 sel \$1;
#X msg 129 148 1;
#X msg 168 149 0;
#X obj 129 172 change -1;
#X obj 147 41 r ticks_per_bar;
#X obj 173 83 r out;
#X obj 129 -23 r tick;
#X obj 129 0 pipe 50;
#X obj 90 197 spigot;
#X obj 31 -6 inlet;
#X obj 37 253 outlet;
#X obj 129 21 - \$2;
#X text 30 284 phasespigot <phase_id> <offset(ticks)>;
#X obj 285 175 loadbang;
#X obj 284 198 s restore;
#X connect 0 0 1 0;
#X connect 1 0 2 0;
#X connect 2 0 3 0;
#X connect 3 0 4 0;
#X connect 3 1 5 0;
#X connect 4 0 6 0;
#X connect 5 0 6 0;
#X connect 6 0 11 1;
#X connect 7 0 0 1;
#X connect 8 0 2 1;
#X connect 9 0 10 0;
#X connect 10 0 14 0;
#X connect 11 0 13 0;
#X connect 12 0 11 0;
#X connect 14 0 0 0;
#X connect 16 0 17 0;
