#N canvas 416 230 450 300 10;
#X obj 36 42 r tick;
#X obj 161 44 inlet;
#X obj 36 262 outlet;
#X obj 36 214 list append;
#X obj 36 146 f;
#X obj 36 191 sel 1;
#X obj 161 66 t b a;
#X obj 161 87 1;
#X obj 36 237 t a b;
#X obj 164 191 0;
#X obj 36 123 sel 0;
#X obj 36 96 mod \$1;
#X text 134 244 quant <grid(ticks)> <offset(ticks)>;
#X obj 36 168 pipe 50;
#X obj 36 71 - \$2;
#X obj 237 43 inlet;
#X obj 286 43 inlet;
#X connect 0 0 14 0;
#X connect 1 0 6 0;
#X connect 3 0 8 0;
#X connect 4 0 13 0;
#X connect 5 0 3 0;
#X connect 6 0 7 0;
#X connect 6 1 3 1;
#X connect 7 0 4 1;
#X connect 8 0 2 0;
#X connect 8 1 9 0;
#X connect 9 0 4 1;
#X connect 10 0 4 0;
#X connect 11 0 10 0;
#X connect 13 0 5 0;
#X connect 14 0 11 0;
#X connect 15 0 11 1;
#X connect 16 0 14 1;
