#N canvas 91 61 777 709 10;
#X obj 138 474 r tick(ms);
#X obj 255 419 t a a;
#X obj 287 442 list length;
#N canvas 465 320 221 248 randseq 0;
#X obj 26 18 inlet;
#X obj 26 177 outlet;
#X obj 49 84 until;
#X obj 26 38 route float;
#X obj 49 106 random 4;
#X obj 174 130 t a;
#X obj 49 129 list prepend;
#X obj 26 155 list append;
#X obj 26 60 t b a b;
#X connect 0 0 3 0;
#X connect 2 0 4 0;
#X connect 3 0 8 0;
#X connect 4 0 6 0;
#X connect 5 0 6 1;
#X connect 6 0 5 0;
#X connect 6 0 7 1;
#X connect 7 0 1 0;
#X connect 8 0 7 0;
#X connect 8 1 2 0;
#X connect 8 2 6 1;
#X connect 8 2 7 1;
#X restore 287 519 pd randseq;
#X obj 88 24 r tick;
#X obj 88 80 mod;
#X obj 88 100 sel 0;
#X obj 127 190 sel \$1;
#X obj 106 59 r ticks_per_bar;
#X obj 215 146 r out;
#X obj 127 169 list append 0;
#X text 230 27 randrhythm <phase_id> <bus_id> <instrument_id> <own_id>
;
#X obj 439 98 loadbang;
#X obj 439 120 s restore;
#X text 438 78 restore global variables;
#X obj 159 304 list append \$2;
#X obj 88 652 ctrl \$3 snippet;
#X obj 159 327 ctrl \$3 bus;
#X msg 127 212 1;
#X msg 166 212 0;
#X obj 127 259 t a a;
#X obj 159 282 sel 1;
#X obj 127 237 change;
#X obj 329 359 lrtc \$4 rhythmpattern;
#X obj 287 464 change;
#X obj 287 499 f;
#X obj 402 436 lrtc \$4 shake;
#X obj 402 458 b;
#X obj 255 393 list append;
#X obj 88 130 t b b;
#N canvas 600 381 141 140 serialize 0;
#X obj 10 95 list split 1;
#X obj 10 50 list append;
#X obj 84 24 inlet;
#X obj 10 27 inlet;
#X obj 10 117 outlet;
#X connect 0 0 4 0;
#X connect 0 1 1 1;
#X connect 1 0 0 0;
#X connect 2 0 1 1;
#X connect 3 0 1 0;
#X restore 88 447 pd serialize;
#X obj 88 298 spigot;
#X obj 88 472 t b a;
#X obj 120 501 *;
#X obj 120 522 del;
#X obj 247 479 b;
#N canvas 600 381 141 140 serialize 0;
#X obj 10 95 list split 1;
#X obj 10 50 list append;
#X obj 84 24 inlet;
#X obj 10 27 inlet;
#X obj 10 117 outlet;
#X connect 0 0 4 0;
#X connect 0 1 1 1;
#X connect 1 0 0 0;
#X connect 2 0 1 1;
#X connect 3 0 1 0;
#X restore 88 625 pd serialize;
#X obj 88 356 t b b b;
#X obj 287 552 t b a;
#X obj 287 576 list append;
#X connect 0 0 33 1;
#X connect 1 0 30 1;
#X connect 1 1 2 0;
#X connect 2 0 24 0;
#X connect 3 0 38 0;
#X connect 4 0 5 0;
#X connect 5 0 6 0;
#X connect 6 0 29 0;
#X connect 7 0 18 0;
#X connect 7 1 19 0;
#X connect 8 0 5 1;
#X connect 9 0 10 1;
#X connect 10 0 7 0;
#X connect 12 0 13 0;
#X connect 15 0 17 0;
#X connect 18 0 22 0;
#X connect 19 0 22 0;
#X connect 20 0 31 1;
#X connect 20 1 21 0;
#X connect 21 0 15 0;
#X connect 22 0 20 0;
#X connect 23 0 28 1;
#X connect 24 0 25 0;
#X connect 25 0 3 0;
#X connect 26 0 27 0;
#X connect 27 0 25 0;
#X connect 28 0 1 0;
#X connect 29 0 31 0;
#X connect 29 1 10 0;
#X connect 30 0 32 0;
#X connect 31 0 37 0;
#X connect 32 0 36 0;
#X connect 32 1 33 0;
#X connect 33 0 34 0;
#X connect 34 0 35 0;
#X connect 35 0 30 0;
#X connect 36 0 16 0;
#X connect 37 0 30 0;
#X connect 37 1 39 0;
#X connect 37 2 28 0;
#X connect 38 0 39 0;
#X connect 38 1 39 1;
#X connect 39 0 36 1;
