#N canvas 170 60 579 741 10;
#X obj 26 343 textfile;
#X obj 26 266 t a a;
#X obj 26 290 sel 0;
#X msg 26 314 rewind \, bang;
#X obj 26 373 list split 1;
#X obj 26 422 -;
#X obj 133 354 t a;
#X obj 58 568 list append;
#X obj 26 475 del;
#X obj 26 523 t b b;
#X obj 26 448 * 125;
#X obj 171 429 del 0;
#X obj 26 -59 r tick;
#X obj 26 211 f;
#X obj 70 211 + 1;
#X obj 26 171 spigot;
#X obj 171 50 mod;
#X obj 26 -13 t b a;
#X obj 171 70 sel 0;
#X obj 171 93 f;
#X obj 171 183 s \$0.phase;
#X obj 171 115 sel \$1;
#X msg 171 137 1;
#X msg 210 138 0;
#X obj 81 142 r \$0.phase;
#X msg 81 186 0;
#X obj 193 240 loadbang;
#X obj 193 284 sel 0;
#X obj 58 640 list trim;
#X obj 58 663 s sequencer;
#X msg 225 307 read sequences/\$1 cr;
#X obj 26 234 mod \$2;
#X obj 171 10 - \$3;
#X text 186 -63 readseq <phase_id> <length(ticks)> <deltatick> <bus_id>
<sequence.seq> <instrument>;
#X obj 193 262 list append \$5;
#X obj 58 618 list prepend \$6;
#X obj 252 479 r \$0.phase;
#X obj 275 535 \$4;
#X msg 275 557 bus \$1;
#X text 325 521 set bus \, when phase starts;
#X obj 81 165 sel 1;
#X obj 171 161 change -1;
#X obj 58 420 r tick(ms);
#X obj 189 29 r ticks_per_bar;
#X obj 327 20 loadbang;
#X obj 327 42 s restore;
#X obj 26 -36 pipe 50;
#X msg 134 524 stop;
#X obj 26 499 spigot;
#X obj 113 473 r \$0.phase;
#N canvas 302 172 450 235 bag 0;
#X obj 29 21 inlet;
#X obj 29 164 outlet;
#X obj 29 77 route noteon;
#X obj 138 108 bag;
#X obj 138 30 inlet;
#X msg 138 54 flush;
#X msg 138 131 noteon \$1 0;
#X obj 29 50 list trim;
#X msg 29 121 noteon \$1 \$2;
#X text 24 196 when phase changes \, all currently played notes are
muted;
#X connect 0 0 7 0;
#X connect 2 0 3 0;
#X connect 2 0 8 0;
#X connect 2 1 1 0;
#X connect 3 0 6 0;
#X connect 4 0 5 0;
#X connect 5 0 3 0;
#X connect 6 0 1 0;
#X connect 7 0 2 0;
#X connect 8 0 1 0;
#X restore 58 591 pd bag;
#X obj 252 507 sel 0 1;
#X text 193 220 -- load sequence file --;
#X text 326 0 restore global variables;
#X obj 215 72 r out;
#X connect 0 0 4 0;
#X connect 1 0 2 0;
#X connect 1 1 6 0;
#X connect 2 0 3 0;
#X connect 3 0 0 0;
#X connect 4 0 5 0;
#X connect 4 1 7 1;
#X connect 5 0 10 0;
#X connect 6 0 5 1;
#X connect 7 0 50 0;
#X connect 8 0 48 0;
#X connect 9 0 11 0;
#X connect 9 1 7 0;
#X connect 10 0 8 0;
#X connect 11 0 0 0;
#X connect 12 0 46 0;
#X connect 13 0 31 0;
#X connect 14 0 13 1;
#X connect 15 0 13 0;
#X connect 16 0 18 0;
#X connect 17 0 15 0;
#X connect 17 1 32 0;
#X connect 18 0 19 0;
#X connect 19 0 21 0;
#X connect 21 0 22 0;
#X connect 21 1 23 0;
#X connect 22 0 41 0;
#X connect 23 0 41 0;
#X connect 24 0 15 1;
#X connect 24 0 40 0;
#X connect 25 0 13 1;
#X connect 26 0 34 0;
#X connect 27 1 30 0;
#X connect 28 0 29 0;
#X connect 30 0 0 0;
#X connect 31 0 14 0;
#X connect 31 0 1 0;
#X connect 32 0 16 0;
#X connect 34 0 27 0;
#X connect 35 0 28 0;
#X connect 36 0 51 0;
#X connect 37 0 38 0;
#X connect 38 0 35 0;
#X connect 40 0 25 0;
#X connect 41 0 20 0;
#X connect 42 0 10 1;
#X connect 43 0 16 1;
#X connect 44 0 45 0;
#X connect 46 0 17 0;
#X connect 47 0 8 0;
#X connect 48 0 9 0;
#X connect 49 0 48 1;
#X connect 50 0 35 0;
#X connect 51 0 50 1;
#X connect 51 0 47 0;
#X connect 51 1 37 0;
#X connect 54 0 19 1;
