#N canvas 440 88 560 445 10;
#X obj 22 -48 r tick;
#X obj 22 37 mod;
#X obj 22 57 sel 0;
#X obj 22 80 f;
#X obj 22 170 s \$0.phase;
#X obj 22 102 sel \$1;
#X msg 22 124 1;
#X msg 61 125 0;
#X obj 22 148 change -1;
#X obj 40 16 r ticks_per_bar;
#X obj 22 -25 pipe 50;
#X obj 66 59 r out;
#X obj 216 -20 r \$0.phase;
#X obj 22 -3 - \$2;
#X obj 216 57 \$3;
#X obj 216 106 s audioin;
#X obj 216 4 sel 1 0;
#X msg 216 78 bus \$1 \, on;
#X obj 216 26 del 0;
#X msg 298 83 off;
#X text 26 215 routelivein <phase_id> <deltatick> <bus_id>;
#X text 17 258 this activates audio live input on specified bus at
appropriate phase;
#X text 261 27 do it after others switched off;
#X connect 0 0 10 0;
#X connect 1 0 2 0;
#X connect 2 0 3 0;
#X connect 3 0 5 0;
#X connect 5 0 6 0;
#X connect 5 1 7 0;
#X connect 6 0 8 0;
#X connect 7 0 8 0;
#X connect 8 0 4 0;
#X connect 9 0 1 1;
#X connect 10 0 13 0;
#X connect 11 0 3 1;
#X connect 12 0 16 0;
#X connect 13 0 1 0;
#X connect 14 0 17 0;
#X connect 16 0 18 0;
#X connect 16 1 19 0;
#X connect 17 0 15 0;
#X connect 18 0 14 0;
#X connect 19 0 15 0;
