#N canvas 555 370 712 500 10;
#X obj 46 427 throw~ bus1L;
#X obj 212 429 throw~ bus1R;
#X msg 426 373 set bus\$1L;
#X msg 509 374 set bus\$1R;
#X obj 426 349 t a;
#X obj 46 376 readsf~ 2;
#X obj 166 376 readsf~ 2;
#X msg 58 271 open \$1;
#X obj 26 227 t b a;
#X obj 58 250 list;
#X obj 26 291 del 50;
#X msg 26 313 1;
#X msg 165 271 open \$1;
#X obj 133 227 t b a;
#X obj 165 250 list;
#X obj 133 291 del 50;
#X msg 133 313 1;
#X obj 31 9 r player;
#X obj 31 33 route \$1;
#X obj 31 104 route play stop bus get_state;
#X obj 404 176 f;
#X msg 422 147 1;
#X msg 473 145 0;
#X msg 404 198 state \$1;
#X obj 404 220 s player;
#X text 476 181 1 = playing;
#X text 477 196 0 = idling;
#X text 476 222 is used to find free player;
#N canvas 444 365 584 295 alternate 0;
#X obj 40 16 inlet;
#X obj 40 229 outlet;
#X obj 109 230 outlet;
#X obj 40 75 t b a;
#X obj 40 103 f;
#X obj 40 125 mod 2;
#X obj 88 109 + 1;
#X obj 40 146 list append;
#X obj 40 167 route 0 1;
#X obj 267 17 inlet;
#X obj 267 238 outlet;
#X obj 324 238 outlet;
#X obj 267 167 list prepend;
#X obj 267 190 route 0 1;
#X text 182 265 only stop the [readsf~] \, that was previously playing
;
#X obj 267 216 b;
#X obj 324 216 b;
#X connect 0 0 3 0;
#X connect 3 0 4 0;
#X connect 3 1 7 1;
#X connect 4 0 5 0;
#X connect 5 0 6 0;
#X connect 5 0 7 0;
#X connect 5 0 12 1;
#X connect 6 0 4 1;
#X connect 7 0 8 0;
#X connect 8 0 1 0;
#X connect 8 1 2 0;
#X connect 9 0 12 0;
#X connect 12 0 13 0;
#X connect 13 0 15 0;
#X connect 13 1 16 0;
#X connect 15 0 10 0;
#X connect 16 0 11 0;
#X restore 31 178 pd alternate - - - - - - - - - - - - - -;
#X msg 232 297 0;
#X obj 422 118 route play stop;
#X obj 31 58 t a a;
#X obj 232 275 del 50;
#X msg 317 296 0;
#X obj 317 274 del 50;
#X obj 31 125 list;
#X msg 31 147 samples/\$1;
#X connect 2 0 0 0;
#X connect 3 0 1 0;
#X connect 4 0 2 0;
#X connect 4 0 3 0;
#X connect 5 0 0 0;
#X connect 5 1 1 0;
#X connect 6 0 0 0;
#X connect 6 1 1 0;
#X connect 7 0 5 0;
#X connect 8 0 10 0;
#X connect 8 1 9 0;
#X connect 9 0 7 0;
#X connect 10 0 11 0;
#X connect 11 0 5 0;
#X connect 12 0 6 0;
#X connect 13 0 15 0;
#X connect 13 1 14 0;
#X connect 14 0 12 0;
#X connect 15 0 16 0;
#X connect 16 0 6 0;
#X connect 17 0 18 0;
#X connect 18 0 31 0;
#X connect 19 0 35 0;
#X connect 19 1 28 1;
#X connect 19 2 4 0;
#X connect 19 3 20 0;
#X connect 20 0 23 0;
#X connect 21 0 20 1;
#X connect 22 0 20 1;
#X connect 23 0 24 0;
#X connect 28 0 8 0;
#X connect 28 1 13 0;
#X connect 28 2 32 0;
#X connect 28 3 34 0;
#X connect 29 0 5 0;
#X connect 30 0 21 0;
#X connect 30 1 22 0;
#X connect 31 0 19 0;
#X connect 31 1 30 0;
#X connect 32 0 29 0;
#X connect 33 0 6 0;
#X connect 34 0 33 0;
#X connect 35 0 36 0;
#X connect 36 0 28 0;
