#N canvas 492 6 704 938 10;
#X text 32 56 eg sfile 1 player3 2 bass-1.wav 16 null 16;
#X obj 83 852 s player;
#X text 194 406 --- select sample ---;
#X obj 83 92 r tick;
#X obj 83 513 list split 1;
#X obj 83 416 sel 0;
#X obj 83 372 f;
#X obj 127 372 + 1;
#X obj 83 395 mod 1;
#X obj 167 476 t a;
#X obj 83 783 list prepend 0;
#X obj 83 545 sel 0 null;
#N canvas 380 469 274 151 error 0;
#X msg 10 61 sample not specified in phase \$1;
#X obj 10 37 \$1;
#X obj 10 17 inlet;
#X obj 10 82 print RJ_ERROR;
#X connect 0 0 3 0;
#X connect 1 0 0 0;
#X connect 2 0 1 0;
#X restore 15 627 pd error;
#X msg 83 654 stop;
#N canvas 521 418 193 235 get_free_player 0;
#X obj 28 20 inlet;
#X obj 59 120 r player;
#X obj 60 98 s player;
#X msg 60 76 get_free;
#X obj 59 142 route free;
#X obj 28 171 f;
#X obj 28 48 t b b;
#X obj 28 195 outlet;
#X connect 0 0 6 0;
#X connect 1 0 4 0;
#X connect 3 0 2 0;
#X connect 4 0 5 1;
#X connect 5 0 7 0;
#X connect 6 0 5 0;
#X connect 6 1 3 0;
#X restore 323 722 pd get_free_player;
#X obj 173 612 del 0;
#X obj 150 574 t b b a;
#X obj 156 699 list append;
#X obj 173 650 t b b b;
#X text 223 606 do only start playing \, _after_ all (free) players
have stopped;
#X obj 250 701 \$2;
#X msg 250 722 bus \$1;
#X msg 156 720 play \$1;
#X text 324 781 1 choose free player;
#X text 325 800 2 set the bus;
#X text 324 817 3 start playing sample;
#X text 150 856 <player_id> <action> [<arguments>];
#X text 30 11 arguments: sfile <phase> <bus_id> <num samples (max 3)>
<sample.wav|null> <length in 1/4 beats> [<sample.wav|null> <length
in 1/4 beats> [...]];
#X text 322 762 order:;
#X obj 83 332 spigot;
#X text 254 534 stopping after each segment is necessary for the free
player evaluation.;
#X obj 15 727 sel 0;
#X obj 181 158 mod;
#X obj 83 114 t b a;
#N canvas 300 142 252 260 select_sample 0;
#X obj 53 86 sel 0 1 2;
#X obj 53 173 t a;
#X obj 21 199 list append;
#X obj 21 40 t b b;
#X obj 21 11 inlet;
#X obj 21 223 outlet;
#X obj 53 148 list append \$5 \$6;
#X obj 73 127 list append \$7 \$8;
#X obj 93 107 list append \$9 \$10;
#X obj 53 64 random \$4;
#X connect 0 0 6 0;
#X connect 0 1 7 0;
#X connect 0 2 8 0;
#X connect 1 0 2 1;
#X connect 2 0 5 0;
#X connect 3 0 2 0;
#X connect 3 1 9 0;
#X connect 4 0 3 0;
#X connect 6 0 1 0;
#X connect 7 0 1 0;
#X connect 8 0 1 0;
#X connect 9 0 0 0;
#X restore 83 450 pd select_sample;
#X obj 181 118 - \$3;
#X obj 181 178 sel 0;
#X obj 181 201 f;
#X obj 225 180 r phase;
#X obj 181 291 s \$0.phase;
#X obj 181 223 sel \$1;
#X msg 181 245 1;
#X msg 220 246 0;
#X obj 181 269 change;
#X obj 179 316 r \$0.phase;
#X obj 179 339 sel 0;
#X msg 179 361 0;
#X obj 15 701 r \$0.phase;
#X obj 199 138 r ticks_per_bar;
#X obj 489 68 loadbang;
#X obj 489 91 s restore;
#X connect 3 0 33 0;
#X connect 4 0 11 0;
#X connect 4 1 9 0;
#X connect 5 0 34 0;
#X connect 6 0 8 0;
#X connect 7 0 6 1;
#X connect 8 0 5 0;
#X connect 8 0 7 0;
#X connect 9 0 8 1;
#X connect 10 0 1 0;
#X connect 11 0 12 0;
#X connect 11 0 13 0;
#X connect 11 1 13 0;
#X connect 11 2 16 0;
#X connect 13 0 10 0;
#X connect 14 0 10 1;
#X connect 15 0 18 0;
#X connect 16 0 13 0;
#X connect 16 1 15 0;
#X connect 16 2 17 1;
#X connect 17 0 22 0;
#X connect 18 0 17 0;
#X connect 18 1 20 0;
#X connect 18 2 14 0;
#X connect 20 0 21 0;
#X connect 21 0 10 0;
#X connect 22 0 10 0;
#X connect 29 0 6 0;
#X connect 31 0 13 0;
#X connect 32 0 36 0;
#X connect 33 0 29 0;
#X connect 33 1 35 0;
#X connect 34 0 4 0;
#X connect 35 0 32 0;
#X connect 36 0 37 0;
#X connect 37 0 40 0;
#X connect 38 0 37 1;
#X connect 40 0 41 0;
#X connect 40 1 42 0;
#X connect 41 0 43 0;
#X connect 42 0 43 0;
#X connect 43 0 39 0;
#X connect 44 0 29 1;
#X connect 44 0 45 0;
#X connect 45 0 46 0;
#X connect 46 0 6 1;
#X connect 47 0 31 0;
#X connect 48 0 32 1;
#X connect 49 0 50 0;
