#N canvas 404 261 586 478 10;
#X obj 20 375 throw~ bus1L;
#X msg 108 312 set bus\$1L;
#X obj 110 375 throw~ bus1R;
#X msg 195 313 set bus\$1R;
#N canvas 578 377 522 313 snippetplayer 0;
#X obj 25 169 tabplay~;
#N canvas 388 339 299 240 alternate 0;
#X obj 18 23 inlet;
#X obj 18 203 outlet;
#X obj 168 206 outlet;
#X obj 18 51 t a b;
#X obj 50 95 mod 2;
#X obj 50 74 f;
#X obj 111 82 + 1;
#X obj 18 124 list prepend;
#X obj 18 149 route 0 1;
#X obj 221 207 outlet;
#X obj 73 204 outlet;
#X obj 73 181 ==;
#X connect 0 0 3 0;
#X connect 3 0 7 0;
#X connect 3 1 5 0;
#X connect 4 0 6 0;
#X connect 4 0 7 1;
#X connect 4 0 9 0;
#X connect 4 0 11 0;
#X connect 5 0 4 0;
#X connect 6 0 5 1;
#X connect 7 0 8 0;
#X connect 8 0 1 0;
#X connect 8 1 2 0;
#X connect 11 0 10 0;
#X restore 25 43 pd alternate;
#X obj 26 199 *~;
#X obj 251 169 tabplay~;
#X obj 252 199 *~;
#X obj 27 256 outlet~;
#X obj 25 21 inlet;
#X obj 93 169 line~;
#X obj 313 169 line~;
#X msg 93 122 \$1 10;
#X msg 313 117 \$1 10;
#X obj 25 91 list prepend \$0;
#X msg 25 146 set \$1.sample.\$2 \, bang;
#X obj 251 89 list prepend \$0;
#X msg 251 144 set \$1.sample.\$2 \, bang;
#X connect 0 0 2 0;
#X connect 1 0 11 0;
#X connect 1 1 9 0;
#X connect 1 2 13 0;
#X connect 1 3 10 0;
#X connect 2 0 5 0;
#X connect 3 0 4 0;
#X connect 4 0 5 0;
#X connect 6 0 1 0;
#X connect 7 0 2 1;
#X connect 8 0 4 1;
#X connect 9 0 7 0;
#X connect 10 0 8 0;
#X connect 11 0 12 0;
#X connect 12 0 0 0;
#X connect 13 0 14 0;
#X connect 14 0 3 0;
#X restore 21 77 pd snippetplayer;
#X obj 351 338 table \$0.sample.0 27500;
#X obj 351 357 table \$0.sample.1 27500;
#X obj 351 376 table \$0.sample.2 27500;
#X obj 351 395 table \$0.sample.3 27500;
#X obj 383 200 r~ inleft;
#X obj 351 266 tabwrite~;
#X obj 383 222 delwrite~ \$0.latency.l 10;
#X obj 383 242 delread~ \$0.latency.l 10;
#X obj 351 147 list prepend \$0;
#X msg 351 171 set \$1.sample.\$2 \, bang;
#X obj 351 98 f;
#X obj 406 109 + 1;
#X obj 351 121 mod 4;
#X obj 21 49 lrtc \$1 snippet;
#X obj 108 281 lrtc \$1 bus;
#X obj 351 55 lrtc \$1 record;
#X obj 351 76 b;
#X connect 1 0 0 0;
#X connect 3 0 2 0;
#X connect 4 0 0 0;
#X connect 4 0 2 0;
#X connect 9 0 11 0;
#X connect 12 0 10 0;
#X connect 13 0 14 0;
#X connect 14 0 10 0;
#X connect 15 0 17 0;
#X connect 16 0 15 1;
#X connect 17 0 16 0;
#X connect 17 0 13 0;
#X connect 18 0 4 0;
#X connect 19 0 1 0;
#X connect 19 0 3 0;
#X connect 20 0 21 0;
#X connect 21 0 15 0;
