#N canvas 517 12 552 704 10;
#X text 425 7 square wave acid;
#X obj 49 174 r numnotes;
#X obj 9 263 mod 3;
#X obj 50 197 / 3;
#X obj 50 263 * 12;
#X obj 9 174 t f f;
#X obj 9 89 unpack f f;
#X obj 9 110 / 20;
#X obj 9 131 int;
#X obj 9 152 change;
#X text 38 324 <- note to use;
#X obj 9 286 tabread notes;
#X text 187 94 catch trigger of this note;
#X obj 102 345 r tick;
#X msg 102 367 bang;
#X obj 171 163 sel off on;
#X msg 171 186 0;
#X msg 203 186 1;
#X obj 102 392 spigot;
#X obj 10 621 vcf~ 4;
#X msg 102 553 1 3 \, 0 \$1 3;
#X text 157 507 note length;
#X obj 281 507 vline~;
#X msg 281 484 1 3 \, 0 \$1 3;
#X obj 281 462 f;
#X obj 102 577 vline~;
#X obj 282 552 +~;
#X obj 282 529 *~;
#X text 444 462 freq dive;
#X obj 74 110 mtof~;
#X obj 382 484 random 127;
#X obj 382 506 mtof~;
#X text 290 370 cutoff dive length;
#X obj 102 416 t b b;
#X obj 171 139 symbol;
#X obj 9 315 +;
#X obj 118 506 + 50;
#X obj 9 650 *~;
#X obj 50 218 int;
#X obj 50 239 + 3;
#X obj 102 530 f;
#X obj 118 482 random 500;
#X obj 297 419 random 500;
#X obj 297 439 + 30;
#X obj 9 674 throw~ all;
#X obj 9 554 mtof;
#X text 58 71 x y;
#X obj 9 29 r note-value-routed;
#X obj 171 53 r note-trigger-routed;
#X obj 118 459 r shake;
#X obj 297 396 r shake;
#X obj 382 463 r shake;
#X obj 9 579 \$1;
#X obj 9 51 route \$2;
#X obj 171 74 route \$2;
#X obj 20 461 print \$1-note;
#X obj 194 626 print \$1-vline;
#X msg 43 545 0.5;
#X obj 43 522 loadbang;
#X obj 116 139 r shake;
#X connect 1 0 2 1;
#X connect 1 0 3 1;
#X connect 2 0 11 0;
#X connect 3 0 38 0;
#X connect 4 0 35 1;
#X connect 5 0 2 0;
#X connect 5 1 3 0;
#X connect 6 0 7 0;
#X connect 6 1 29 0;
#X connect 7 0 8 0;
#X connect 8 0 9 0;
#X connect 9 0 5 0;
#X connect 11 0 35 0;
#X connect 13 0 14 0;
#X connect 14 0 18 0;
#X connect 15 0 16 0;
#X connect 15 1 17 0;
#X connect 16 0 18 1;
#X connect 17 0 18 1;
#X connect 18 0 33 0;
#X connect 19 0 37 0;
#X connect 20 0 25 0;
#X connect 20 0 56 0;
#X connect 22 0 27 0;
#X connect 23 0 22 0;
#X connect 24 0 23 0;
#X connect 25 0 37 1;
#X connect 26 0 19 1;
#X connect 27 0 26 0;
#X connect 29 0 26 1;
#X connect 30 0 31 0;
#X connect 31 0 27 1;
#X connect 33 0 40 0;
#X connect 33 1 24 0;
#X connect 34 0 15 0;
#X connect 35 0 45 0;
#X connect 35 0 55 0;
#X connect 36 0 40 1;
#X connect 37 0 44 0;
#X connect 38 0 39 0;
#X connect 39 0 4 0;
#X connect 40 0 20 0;
#X connect 41 0 36 0;
#X connect 42 0 43 0;
#X connect 43 0 24 1;
#X connect 45 0 52 0;
#X connect 47 0 53 0;
#X connect 48 0 54 0;
#X connect 49 0 41 0;
#X connect 50 0 42 0;
#X connect 51 0 30 0;
#X connect 52 0 19 0;
#X connect 53 0 6 0;
#X connect 54 0 34 0;
#X connect 58 0 57 0;
#X connect 59 0 16 0;
