#N canvas 381 147 698 470 10;
#X obj 129 54 r #touch;
#X obj 129 113 list split 1;
#X obj 169 153 unpack 0 0;
#X text 123 22 Here's how to use it with RjDj \;;
#X obj 428 143 hradio 15 1 0 6 empty empty empty 0 -8 0 10 -262144
-1 -1 0;
#X obj 412 158 vradio 15 1 0 7 empty empty empty 0 -8 0 10 -262144
-1 -1 0;
#X obj 169 209 pack 0 0;
#N canvas 0 0 450 300 col0 0;
#X obj 79 74 route 0;
#X msg 79 143 0;
#X msg 167 142 2;
#X msg 269 143 4;
#X obj 78 50 inlet;
#X text 161 61 white keys \, first row;
#X obj 100 193 outlet;
#X obj 386 86 outlet;
#X msg 125 144 1;
#X msg 215 144 3;
#X obj 79 104 select 0 1 2 3 4 5 6;
#X connect 0 0 10 0;
#X connect 0 1 7 0;
#X connect 1 0 6 0;
#X connect 2 0 6 0;
#X connect 3 0 6 0;
#X connect 4 0 0 0;
#X connect 10 0 1 0;
#X connect 10 1 1 0;
#X connect 10 2 2 0;
#X connect 10 3 2 0;
#X connect 10 4 2 0;
#X connect 10 5 3 0;
#X connect 10 6 3 0;
#X restore 169 257 pd col0;
#N canvas 368 192 450 300 col1 0;
#X msg 79 143 0;
#X msg 167 142 2;
#X msg 269 143 4;
#X obj 79 50 inlet;
#X obj 100 193 outlet;
#X obj 142 75 outlet;
#X obj 79 74 route 1;
#X msg 115 143 1;
#X msg 214 142 3;
#X obj 79 104 select 0 1 2 3 4 5 6;
#X connect 0 0 4 0;
#X connect 1 0 4 0;
#X connect 2 0 4 0;
#X connect 3 0 6 0;
#X connect 6 0 9 0;
#X connect 6 1 5 0;
#X connect 7 0 4 0;
#X connect 8 0 4 0;
#X connect 9 0 0 0;
#X connect 9 1 7 0;
#X connect 9 2 7 0;
#X connect 9 3 1 0;
#X connect 9 4 8 0;
#X connect 9 5 8 0;
#X connect 9 6 2 0;
#X restore 229 258 pd col1;
#N canvas 368 192 450 300 col4 0;
#X obj 79 50 inlet;
#X text 163 23 white keys \, first row;
#X obj 100 193 outlet;
#X obj 142 75 outlet;
#X obj 79 104 select 0 1 2 3 4 5 6;
#X obj 79 74 route 4;
#X msg 79 143 5;
#X msg 115 143 6;
#X msg 167 142 7;
#X msg 214 142 8;
#X msg 269 143 9;
#X connect 0 0 5 0;
#X connect 4 0 6 0;
#X connect 4 1 7 0;
#X connect 4 2 7 0;
#X connect 4 3 8 0;
#X connect 4 4 9 0;
#X connect 4 5 9 0;
#X connect 4 6 10 0;
#X connect 5 0 4 0;
#X connect 5 1 3 0;
#X connect 6 0 2 0;
#X connect 7 0 2 0;
#X connect 8 0 2 0;
#X connect 9 0 2 0;
#X connect 10 0 2 0;
#X restore 288 259 pd col4;
#N canvas 0 0 450 300 col5 0;
#X obj 78 50 inlet;
#X text 161 61 white keys \, first row;
#X obj 100 193 outlet;
#X obj 386 86 outlet;
#X obj 79 104 select 0 1 2 3 4 5 6;
#X msg 79 143 5;
#X msg 125 144 6;
#X msg 167 142 7;
#X msg 215 144 8;
#X msg 269 143 9;
#X obj 79 74 route 5;
#X connect 0 0 10 0;
#X connect 4 0 5 0;
#X connect 4 1 5 0;
#X connect 4 2 7 0;
#X connect 4 3 7 0;
#X connect 4 4 7 0;
#X connect 4 5 9 0;
#X connect 4 6 9 0;
#X connect 5 0 2 0;
#X connect 7 0 2 0;
#X connect 9 0 2 0;
#X connect 10 0 4 0;
#X connect 10 1 3 0;
#X restore 347 258 pd col5;
#X obj 325 337 outlet;
#X obj 169 174 m_touch2grid \$0 6 7;
#X obj 56 380 s DEBUG;
#X obj 55 331 list prepend 10grid;
#X obj 210 374 list prepend 10note;
#X obj 129 75 route down xy;
#X connect 0 0 16 0;
#X connect 1 1 2 0;
#X connect 2 0 12 0;
#X connect 2 1 12 1;
#X connect 6 0 7 0;
#X connect 6 0 14 0;
#X connect 7 0 11 0;
#X connect 7 0 15 0;
#X connect 7 1 8 0;
#X connect 8 0 11 0;
#X connect 8 0 15 0;
#X connect 8 1 9 0;
#X connect 9 0 11 0;
#X connect 9 0 15 0;
#X connect 9 1 10 0;
#X connect 10 0 11 0;
#X connect 10 0 15 0;
#X connect 12 0 6 0;
#X connect 12 1 6 1;
#X connect 14 0 13 0;
#X connect 15 0 13 0;
#X connect 16 0 1 0;
#X connect 16 1 1 0;
