#N canvas 0 0 395 315 10;
#N canvas 271 219 843 507 a-synth 0;
#X obj 288 196 m_keyfollow;
#X floatatom 362 134 5 0 0 2 key_fl. - -;
#X obj 145 137 mtof;
#X floatatom 145 84 5 0 0 2 pitch - -;
#X obj 291 116 mtof;
#X floatatom 291 83 5 0 0 2 filter-pitch - -;
#X obj 146 252 e_lop4 1000 4;
#X floatatom 253 253 5 0 0 2 Q - -;
#X obj 146 439 soundoutput;
#X obj 147 405 e_chorusr \$0;
#X msg 247 409 freq 0.8 \, mod 1.3;
#X obj 247 389 loadbang;
#X obj 77 250 env~;
#X obj 77 273 - 100;
#X obj 78 297 vu 15 120 empty empty -1 -8 0 10 -66577 -1 1 0;
#X obj 396 189 makenote 80 500;
#X obj 380 241 c_adsrj \$0;
#X obj 147 297 *~ 0.4;
#X obj 148 344 *~;
#X obj 145 194 s_osc \$0 square;
#X floatatom 494 162 5 0 0 0 - - -;
#X msg 612 145 A 10 \, D 10 \, S 80 \, R 300;
#X obj 291 176 * 1;
#X obj 551 351 t b a;
#X obj 551 321 + 0.5;
#X obj 551 238 c_madsrj 1 80 100 60 200;
#X obj 612 113 loadbang;
#X msg 443 421 pwmdepth 30 \, pwmfreq 1;
#X obj 551 296 line 0 50;
#X obj 443 394 loadbang;
#X text 136 28 This will disappear from here.;
#X connect 0 0 6 1;
#X connect 1 0 0 2;
#X connect 2 0 0 1;
#X connect 2 0 19 0;
#X connect 3 0 15 0;
#X connect 3 0 2 0;
#X connect 4 0 22 0;
#X connect 5 0 4 0;
#X connect 6 0 17 0;
#X connect 6 0 12 0;
#X connect 7 0 6 2;
#X connect 9 0 8 0;
#X connect 9 1 8 1;
#X connect 10 0 9 1;
#X connect 11 0 10 0;
#X connect 12 0 13 0;
#X connect 13 0 14 0;
#X connect 15 1 16 0;
#X connect 15 1 25 0;
#X connect 16 0 18 1;
#X connect 17 0 18 0;
#X connect 18 0 9 0;
#X connect 19 0 6 0;
#X connect 20 0 15 2;
#X connect 21 0 16 1;
#X connect 21 0 25 1;
#X connect 22 0 0 0;
#X connect 23 0 22 0;
#X connect 23 1 22 1;
#X connect 24 0 23 0;
#X connect 25 0 28 0;
#X connect 26 0 21 0;
#X connect 27 0 19 1;
#X connect 28 0 24 0;
#X connect 29 0 27 0;
#X restore 83 57 pd a-synth;
