#N canvas 151 25 1067 759 10;
#X declare -path .;
#X declare -path rj;
#X obj 153 222 sig~ 0;
#X obj 153 197 mtof;
#X floatatom 72 155 5 0 0 0 - - -;
#X obj 153 378 e_beequad;
#X obj 139 685 soundoutput;
#X obj 293 280 mtof;
#X floatatom 304 262 5 0 0 2 filter_freq - -;
#X floatatom 92 227 5 0 0 0 - - -;
#X floatatom 381 295 5 0 500 2 key_follow% - -;
#X floatatom 293 351 5 0 0 0 - - -;
#X obj 152 246 s_osc \$0 square;
#X msg 254 193 pwmdepth 10 \, pwmfreq 2;
#X obj 254 171 loadbang;
#X obj 293 319 m_keyfollow;
#X obj 154 406 e_beequad;
#N canvas 0 0 475 409 load 0;
#X floatatom 118 256 0 0 0 0 - - -;
#X obj 118 168 cputime;
#X obj 118 112 metro 1000;
#X obj 118 140 t b b;
#X obj 118 228 * 0.1;
#X obj 118 197 int;
#X text 163 84 <-- on/off;
#X text 51 284 CPU load in percent;
#X obj 159 257 outlet;
#X obj 118 41 inlet;
#X connect 1 0 5 0;
#X connect 2 0 3 0;
#X connect 3 0 1 0;
#X connect 3 1 1 1;
#X connect 4 0 0 0;
#X connect 4 0 8 0;
#X connect 5 0 4 0;
#X connect 9 0 2 0;
#X restore 656 70 pd load;
#X floatatom 656 91 5 0 0 1 CPU% - -;
#X obj 435 187 loadbang;
#X msg 481 214 100;
#X msg 435 215 110;
#N canvas 0 0 450 300 init 0;
#X obj 86 68 declare -path .;
#X obj 87 91 declare -path rj;
#X restore 524 58 pd init;
#X obj 227 384 u_lowpassq 500 5;
#X obj 73 104 loadbang;
#X msg 73 125 48;
#X obj 35 281 soundinput;
#N canvas 0 0 675 557 breath 0;
#X obj 154 133 env~;
#X obj 155 176 clip 0 30;
#X obj 156 196 / 30;
#X obj 209 129 * -1;
#X obj 209 150 + 100;
#X obj 154 156 +;
#X msg 208 108 70;
#X obj 208 86 loadbang;
#X text 204 65 threshold (between 0 and 100);
#X obj 154 40 inlet~;
#N canvas 477 248 450 300 follower 0;
#X obj 142 99 +;
#X text 228 99 long-term loudness;
#X obj 142 64 inlet;
#X text 177 36 input;
#X obj 174 100 * 0.94;
#X obj 142 122 * 0.06;
#X obj 142 168 outlet;
#X connect 0 0 4 0;
#X connect 0 0 5 0;
#X connect 2 0 0 0;
#X connect 4 0 0 1;
#X connect 5 0 6 0;
#X restore 156 218 pd follower;
#X obj 156 246 outlet;
#X text 426 37 from Amaury;
#X connect 0 0 5 0;
#X connect 1 0 2 0;
#X connect 2 0 10 0;
#X connect 3 0 4 0;
#X connect 3 0 5 1;
#X connect 4 0 1 2;
#X connect 4 0 2 1;
#X connect 5 0 1 0;
#X connect 6 0 3 0;
#X connect 7 0 6 0;
#X connect 9 0 0 0;
#X connect 10 0 11 0;
#X restore 35 348 pd breath;
#X obj 135 543 *~;
#X obj 35 410 sig~;
#X obj 224 572 loadbang;
#X obj 136 615 e_chorusr ccc;
#X msg 224 592 freq 0.8 \, mod 2.3;
#X obj 251 117 r \$0-key;
#N canvas 0 0 1170 847 map-touch 0;
#X text 940 252 down finger x y;
#X text 941 270 up finger x y;
#X text 942 289 xy finger x y;
#N canvas 369 52 776 448 make-penta 0;
#X obj 104 66 inlet;
#N canvas 0 0 619 485 quickmajor 0;
#X obj 45 81 t a a;
#X obj 110 146 * 12;
#X obj 45 237 +;
#X obj 45 304 outlet;
#X obj 45 41 inlet;
#X obj 289 191 loadbang;
#X obj 293 45 inlet;
#X text 293 24 base note;
#X text 41 18 major step;
#X obj 289 237 s \$0-major;
#X obj 45 175 tabread \$0-major;
#X floatatom 57 146 5 0 0 0 - - -;
#X msg 289 214 0 0 2 4 5 7 9 11;
#X obj 289 261 table \$0-major 7;
#X obj 45 120 mod 7;
#X obj 110 120 div 7;
#X obj 45 260 +;
#X connect 0 0 14 0;
#X connect 0 1 15 0;
#X connect 1 0 2 1;
#X connect 2 0 16 0;
#X connect 4 0 0 0;
#X connect 5 0 12 0;
#X connect 6 0 16 1;
#X connect 10 0 2 0;
#X connect 12 0 9 0;
#X connect 14 0 10 0;
#X connect 14 0 11 0;
#X connect 15 0 1 0;
#X connect 16 0 3 0;
#X restore 104 284 pd quickmajor;
#X obj 104 198 moses 3;
#X obj 150 224 + 1;
#X text 301 118 Lets use a pentatonic scale here \, which in C only
has the scale steps: C \, D \, E \, G \, A.;
#X text 296 155 These are the steps 0 \, 1 \, 2 \, 4 \, 5 in a major
scale.;
#X obj 104 102 clip 0 4;
#X floatatom 50 67 5 0 0 0 - - -;
#X obj 104 130 int;
#X floatatom 113 319 5 0 0 0 - - -;
#X floatatom 209 255 5 0 0 1 base_note - -;
#X obj 192 64 inlet;
#X text 299 181 So we let 0 \, 1 and 2 pass unchanged \, and add 1
to 3 and 4 to make them 4 and 5;
#X text 217 286 "quickmajor" converts to midi notes.;
#X obj 104 359 outlet;
#X text 193 42 base note;
#X text 55 39 penta steps 0...4;
#X connect 0 0 6 0;
#X connect 1 0 9 0;
#X connect 1 0 14 0;
#X connect 2 0 1 0;
#X connect 2 1 3 0;
#X connect 3 0 1 0;
#X connect 6 0 8 0;
#X connect 7 0 6 0;
#X connect 8 0 2 0;
#X connect 10 0 1 1;
#X connect 11 0 1 1;
#X restore 951 476 pd make-penta;
#X floatatom 730 271 5 0 0 1 base_note - -;
#X obj 972 392 loadbang;
#X floatatom 960 505 5 0 0 0 - - -;
#X msg 972 413 48;
#X obj 722 67 r #touch;
#X obj 722 119 route down xy;
#N canvas 469 318 738 484 map-finger-to-octave 0;
#X obj 120 96 unpack 0 0;
#X obj 80 32 inlet;
#X text 215 94 x y;
#X floatatom 158 198 5 0 0 0 - - -;
#X floatatom 137 255 5 0 0 0 - - -;
#X obj 120 228 div 64;
#X text 186 222 The screen is 320 px large. We divided it into 5 parts
\, each of which is 320/5 = 64 pixels high.;
#X msg 617 172 320;
#X obj 617 199 / 5;
#X floatatom 617 224 5 0 0 0 - - -;
#X obj 120 375 outlet;
#X text 185 252 [div 64] gives us the index number from 0 to 4;
#X obj 120 163 select 1;
#X obj 120 193 f;
#X obj 80 58 list split 1;
#X text 190 135 we're only interested in the right side of the screen.
;
#X obj 120 136 >= 220;
#X obj 120 337 -;
#X msg 120 313 4 \$1;
#X text 172 323 finally we invert the direction because y=0 is the
top of the screen \, which feel unnatural for notes;
#X connect 0 0 16 0;
#X connect 0 1 13 1;
#X connect 1 0 14 0;
#X connect 3 0 5 0;
#X connect 5 0 4 0;
#X connect 5 0 18 0;
#X connect 7 0 8 0;
#X connect 8 0 9 0;
#X connect 12 0 13 0;
#X connect 13 0 5 0;
#X connect 14 1 0 0;
#X connect 16 0 12 0;
#X connect 17 0 10 0;
#X connect 18 0 17 0;
#X restore 722 202 pd map-finger-to-octave;
#X obj 722 246 * 12;
#X obj 722 226 + 1;
#X obj 972 443 t b a;
#X obj 951 535 s \$0-key;
#X obj 710 375 r #touch;
#X obj 718 602 s \$0-drumset;
#X obj 301 86 r \$0-touchdown;
#X text 376 115 ignore center region;
#X obj 301 175 select 0 1;
#N canvas 0 0 619 485 quickmajor 0;
#X obj 45 81 t a a;
#X obj 110 146 * 12;
#X obj 45 237 +;
#X obj 45 304 outlet;
#X obj 45 41 inlet;
#X obj 289 191 loadbang;
#X obj 293 45 inlet;
#X text 293 24 base note;
#X text 41 18 major step;
#X obj 289 237 s \$0-major;
#X obj 45 175 tabread \$0-major;
#X floatatom 57 146 5 0 0 0 - - -;
#X msg 289 214 0 0 2 4 5 7 9 11;
#X obj 289 261 table \$0-major 7;
#X obj 45 120 mod 7;
#X obj 110 120 div 7;
#X obj 45 260 +;
#X connect 0 0 14 0;
#X connect 0 1 15 0;
#X connect 1 0 2 1;
#X connect 2 0 16 0;
#X connect 4 0 0 0;
#X connect 5 0 12 0;
#X connect 6 0 16 1;
#X connect 10 0 2 0;
#X connect 12 0 9 0;
#X connect 14 0 10 0;
#X connect 14 0 11 0;
#X connect 15 0 1 0;
#X connect 16 0 3 0;
#X restore 301 331 pd quickmajor;
#X obj 382 246 loadbang;
#X msg 382 267 48;
#X obj 382 297 t b a;
#X obj 301 364 s \$0-key;
#X text 362 144 right hand \, three fingers: 0 \, 1 \, 2;
#X msg 301 204 4;
#X msg 334 204 5;
#X text 81 176 left hand \, two fingers: 0 \, 1;
#X obj 301 113 route 0 2;
#X obj 232 680 +;
#X msg 256 652 1;
#X msg 221 651 -1;
#X obj 276 680 f 1;
#X floatatom 232 725 5 0 0 0 - - -;
#X obj 232 746 s \$0-octave;
#X obj 449 243 r \$0-octave;
#X obj 449 285 * 12;
#X floatatom 496 342 5 0 0 0 - - -;
#X obj 232 704 clip 3 5;
#X obj 546 324 s DEBUG;
#X obj 546 294 list prepend TOUCH-OCT;
#X obj 221 611 select 0 1;
#N canvas 0 0 1086 424 octave-button 0;
#X obj 92 92 r \$0-touchdown;
#X obj 205 217 == 2;
#X text 259 217 only left index finger;
#X obj 138 251 spigot;
#X obj 92 147 route 2;
#X text 157 148 ignore right hand (x-grid == 2);
#X obj 138 183 unpack 0 0;
#X obj 138 375 outlet;
#X obj 567 213 == 2;
#X text 621 213 only left index finger;
#X obj 500 247 spigot;
#X obj 454 143 route 2;
#X text 519 144 ignore right hand (x-grid == 2);
#X obj 500 179 unpack 0 0;
#X obj 500 371 outlet;
#X obj 454 88 r \$0-touchup;
#X obj 898 205 == 2;
#X text 952 205 only left index finger;
#X obj 831 239 spigot;
#X obj 785 135 route 2;
#X text 850 136 ignore right hand (x-grid == 2);
#X obj 831 171 unpack 0 0;
#X obj 785 80 r \$0-touchxy;
#X obj 831 287 t a b;
#X obj 831 265 change;
#X connect 0 0 4 0;
#X connect 1 0 3 1;
#X connect 3 0 7 0;
#X connect 4 1 6 0;
#X connect 6 0 3 0;
#X connect 6 1 1 0;
#X connect 8 0 10 1;
#X connect 10 0 14 0;
#X connect 11 1 13 0;
#X connect 13 0 10 0;
#X connect 13 1 8 0;
#X connect 15 0 11 0;
#X connect 16 0 18 1;
#X connect 18 0 24 0;
#X connect 19 1 21 0;
#X connect 21 0 18 0;
#X connect 21 1 16 0;
#X connect 22 0 19 0;
#X connect 23 0 7 0;
#X connect 23 1 14 0;
#X connect 24 0 23 0;
#X restore 221 494 pd octave-button;
#X obj 330 523 b;
#N canvas 0 0 450 300 once 0;
#X obj 144 113 inlet;
#X obj 144 171 spigot 1;
#X obj 211 110 inlet;
#X msg 207 137 1;
#X msg 208 172 0;
#X obj 144 208 t a b;
#X obj 144 237 outlet;
#X connect 0 0 1 0;
#X connect 1 0 5 0;
#X connect 2 0 3 0;
#X connect 3 0 1 1;
#X connect 4 0 1 1;
#X connect 5 0 6 0;
#X connect 5 1 4 0;
#X restore 221 561 pd once;
#X obj 718 462 r \$0-touchdown;
#X obj 718 495 route 1;
#X obj 718 521 route 0 1;
#X obj 718 547 b;
#X obj 718 575 f;
#X obj 746 575 ==;
#X connect 3 0 6 0;
#X connect 3 0 14 0;
#X connect 5 0 7 0;
#X connect 7 0 13 0;
#X connect 8 0 9 0;
#X connect 9 0 10 0;
#X connect 9 1 10 0;
#X connect 10 0 12 0;
#X connect 11 0 4 0;
#X connect 12 0 11 0;
#X connect 13 0 3 0;
#X connect 13 1 3 1;
#X connect 17 0 29 0;
#X connect 19 0 26 0;
#X connect 19 1 27 0;
#X connect 20 0 24 0;
#X connect 21 0 22 0;
#X connect 22 0 23 0;
#X connect 23 0 20 0;
#X connect 23 1 20 1;
#X connect 26 0 20 0;
#X connect 27 0 20 0;
#X connect 29 0 19 0;
#X connect 29 1 20 0;
#X connect 30 0 39 0;
#X connect 31 0 30 0;
#X connect 32 0 30 0;
#X connect 33 0 30 1;
#X connect 34 0 35 0;
#X connect 36 0 37 0;
#X connect 36 0 41 0;
#X connect 37 0 38 0;
#X connect 37 0 23 0;
#X connect 39 0 33 0;
#X connect 39 0 34 0;
#X connect 41 0 40 0;
#X connect 42 0 32 0;
#X connect 42 1 31 0;
#X connect 43 0 45 0;
#X connect 43 1 44 0;
#X connect 44 0 45 1;
#X connect 45 0 42 0;
#X connect 46 0 47 0;
#X connect 47 0 48 0;
#X connect 48 0 49 0;
#X connect 48 1 49 0;
#X connect 49 0 50 0;
#X connect 50 0 51 0;
#X connect 50 0 16 0;
#X connect 51 0 50 1;
#X restore 523 109 pd map-touch;
#X obj 336 362 r \$0-reso;
#X obj 293 228 r \$0-filter;
#N canvas 0 0 626 409 map-accel 0;
#X obj 199 34 r #accelerate;
#X obj 199 78 unpack 0 0 0;
#X obj 199 221 m_scale -2 2 80 120;
#X obj 197 241 int;
#X obj 197 281 change;
#X obj 239 154 clip 3 8;
#X obj 239 131 m_scale -2 2 3 8;
#X obj 197 312 s \$0-filter;
#X obj 239 181 s \$0-reso;
#X obj 197 261 clip 80 120;
#X obj 199 55 m_speedlimit 50;
#X connect 0 0 10 0;
#X connect 1 0 2 0;
#X connect 1 1 6 0;
#X connect 2 0 3 0;
#X connect 3 0 9 0;
#X connect 4 0 7 0;
#X connect 5 0 8 0;
#X connect 6 0 5 0;
#X connect 9 0 4 0;
#X connect 10 0 1 0;
#X restore 523 84 pd map-accel;
#N canvas 0 0 780 494 stuff 0;
#X obj 81 128 random 5;
#X msg 169 240 30;
#X obj 168 219 loadbang;
#X floatatom 84 302 5 0 0 0 - - -;
#X obj 84 66 tgl 15 0 empty empty empty 17 7 0 10 -262144 -1 -1 0 1
;
#X obj 84 90 metro 250;
#X floatatom 188 270 5 0 0 0 - - -;
#X obj 81 153 moses 3;
#X obj 127 179 + 1;
#X floatatom 120 234 5 0 0 0 - - -;
#X text 158 163 pentatonic;
#X obj 185 119 * 12;
#X obj 181 73 random 3;
#X obj 183 98 + 2;
#X obj 85 109 t b b;
#X floatatom 135 68 5 0 0 0 - - -;
#X msg 498 169 320;
#X obj 496 193 / 5;
#X floatatom 496 214 5 0 0 0 - - -;
#X text 414 117 Touch interface: (0 0) -> 100 64;
#X obj 417 195 * 64;
#X obj 396 144 hradio 15 1 0 8 empty empty empty 0 -8 0 10 -262144
-1 -1 0;
#X floatatom 418 222 5 0 0 0 - - -;
#X obj 396 164 + 1;
#X connect 0 0 7 0;
#X connect 2 0 1 0;
#X connect 4 0 5 0;
#X connect 5 0 14 0;
#X connect 7 0 9 0;
#X connect 7 1 8 0;
#X connect 8 0 9 0;
#X connect 11 0 6 0;
#X connect 12 0 13 0;
#X connect 13 0 11 0;
#X connect 14 0 0 0;
#X connect 14 1 12 0;
#X connect 15 0 5 1;
#X connect 16 0 17 0;
#X connect 17 0 18 0;
#X connect 20 0 22 0;
#X connect 21 0 23 0;
#X connect 23 0 20 0;
#X restore 655 150 pd stuff;
#X obj 656 49 tgl 15 0 empty empty empty 17 7 0 10 -262144 -1 -1 0
1;
#X obj 25 644 catch~ \$0-outl;
#X obj 262 639 catch~ \$0-outr;
#N canvas 0 0 1137 755 drumstuff 0;
#N canvas 0 0 889 671 drums 0;
#N canvas 0 0 572 333 psbd 0;
#X obj 96 46 wrap~;
#X obj 96 233 *~;
#X obj 97 71 *~;
#X obj 97 149 osc~;
#X obj 249 145 *~;
#X obj 248 168 lop~ 100;
#X obj 97 21 inlet~;
#X obj 95 169 clip~ -0.9 0.9;
#X obj 98 127 +~ 44;
#X obj 98 107 *~ 44;
#X obj 96 192 *~ 2;
#X obj 95 262 outlet~;
#X connect 0 0 2 0;
#X connect 0 0 2 1;
#X connect 1 0 11 0;
#X connect 2 0 4 0;
#X connect 2 0 4 1;
#X connect 2 0 9 0;
#X connect 3 0 7 0;
#X connect 4 0 5 0;
#X connect 5 0 1 1;
#X connect 6 0 0 0;
#X connect 7 0 10 0;
#X connect 8 0 3 0;
#X connect 9 0 8 0;
#X connect 10 0 1 0;
#X restore 235 193 pd psbd;
#N canvas 0 0 764 667 pssd 0;
#X obj 160 128 wrap~;
#X obj 178 279 noise~;
#X obj 160 512 *~;
#X obj 329 280 *~;
#X obj 328 309 *~;
#X obj 159 86 inlet~;
#X obj 161 311 +~;
#X obj 160 228 +~ 100;
#X obj 160 250 osc~;
#X obj 160 205 *~ 100;
#X obj 160 334 clip~ -0.3 0.3;
#X obj 183 401 *~ 8000;
#X obj 184 380 *~;
#X obj 183 421 +~ 700;
#X obj 160 472 *~ 1;
#X obj 159 541 outlet~;
#X obj 159 449 vcf~ 0.4;
#X connect 0 0 3 0;
#X connect 0 0 3 1;
#X connect 0 0 9 0;
#X connect 1 0 6 1;
#X connect 2 0 15 0;
#X connect 3 0 4 0;
#X connect 3 0 4 1;
#X connect 4 0 2 1;
#X connect 4 0 12 0;
#X connect 4 0 12 1;
#X connect 5 0 0 0;
#X connect 6 0 10 0;
#X connect 7 0 8 0;
#X connect 8 0 6 0;
#X connect 9 0 7 0;
#X connect 10 0 16 0;
#X connect 11 0 13 0;
#X connect 12 0 11 0;
#X connect 13 0 16 1;
#X connect 14 0 2 0;
#X connect 16 0 14 0;
#X restore 330 192 pd pssd;
#N canvas 0 0 687 494 pshh 0;
#X obj 215 76 wrap~;
#X obj 158 209 noise~;
#X obj 195 315 *~;
#X obj 214 101 *~;
#X obj 194 275 *~ 0.3;
#X obj 214 34 inlet~;
#X obj 214 150 *~ 1000;
#X obj 213 170 +~ 8000;
#X obj 370 185 *~;
#X obj 194 344 outlet~;
#X obj 194 252 vcf~ 6;
#X connect 0 0 3 0;
#X connect 0 0 3 1;
#X connect 1 0 10 0;
#X connect 2 0 9 0;
#X connect 3 0 6 0;
#X connect 3 0 8 0;
#X connect 3 0 8 1;
#X connect 4 0 2 0;
#X connect 5 0 0 0;
#X connect 6 0 7 0;
#X connect 7 0 10 1;
#X connect 8 0 2 1;
#X connect 10 0 4 0;
#X restore 416 192 pd pshh;
#X text 494 196 drums;
#X obj 298 53 inlet;
#X obj 298 117 route bd sd hh;
#X obj 298 82 list trim;
#N canvas 0 0 450 300 trig 0;
#X obj 85 99 list split 1;
#X obj 85 77 inlet;
#X obj 86 256 outlet~;
#X msg 85 160 1 \, 0 \$1 \, 1 0 \$1;
#X obj 218 158 loadbang;
#X obj 85 222 vline~;
#X msg 218 178 1;
#X msg 124 131 300;
#X connect 0 0 3 0;
#X connect 0 1 7 0;
#X connect 1 0 0 0;
#X connect 3 0 5 0;
#X connect 4 0 6 0;
#X connect 5 0 2 0;
#X connect 6 0 5 0;
#X connect 7 0 3 0;
#X restore 235 166 pd trig;
#N canvas 0 0 450 300 trig 0;
#X obj 85 99 list split 1;
#X obj 85 77 inlet;
#X obj 86 256 outlet~;
#X msg 85 160 1 \, 0 \$1 \, 1 0 \$1;
#X obj 218 158 loadbang;
#X obj 85 222 vline~;
#X msg 218 178 1;
#X msg 124 131 300;
#X connect 0 0 3 0;
#X connect 0 1 7 0;
#X connect 1 0 0 0;
#X connect 3 0 5 0;
#X connect 4 0 6 0;
#X connect 5 0 2 0;
#X connect 6 0 5 0;
#X connect 7 0 3 0;
#X restore 329 166 pd trig;
#N canvas 0 0 450 300 trig 0;
#X obj 85 99 list split 1;
#X obj 85 77 inlet;
#X obj 86 256 outlet~;
#X msg 85 160 1 \, 0 \$1 \, 1 0 \$1;
#X obj 218 158 loadbang;
#X obj 85 222 vline~;
#X msg 218 178 1;
#X msg 124 131 300;
#X connect 0 0 3 0;
#X connect 0 1 7 0;
#X connect 1 0 0 0;
#X connect 3 0 5 0;
#X connect 4 0 6 0;
#X connect 5 0 2 0;
#X connect 6 0 5 0;
#X connect 7 0 3 0;
#X restore 415 166 pd trig;
#X obj 235 248 e_pan 0.5;
#X obj 328 250 e_pan 0.3;
#X obj 416 245 e_pan 0.6;
#X obj 236 219 *~ 0.8;
#X obj 317 220 *~ 0.8;
#X obj 423 222 *~ 2.5;
#X obj 312 372 throw~ \$0-outl;
#X obj 428 372 throw~ \$0-outr;
#X obj 589 208 inlet;
#X obj 426 316 *~;
#X obj 310 316 *~;
#X obj 596 285 line~;
#X obj 594 251 pack 0 100;
#X connect 0 0 13 0;
#X connect 1 0 14 0;
#X connect 2 0 15 0;
#X connect 4 0 6 0;
#X connect 5 0 7 0;
#X connect 5 1 8 0;
#X connect 5 2 9 0;
#X connect 6 0 5 0;
#X connect 7 0 0 0;
#X connect 8 0 1 0;
#X connect 9 0 2 0;
#X connect 10 0 20 0;
#X connect 10 1 19 0;
#X connect 11 0 20 0;
#X connect 11 1 19 0;
#X connect 12 0 20 0;
#X connect 12 1 19 0;
#X connect 13 0 10 0;
#X connect 14 0 11 0;
#X connect 15 0 12 0;
#X connect 18 0 22 0;
#X connect 19 0 17 0;
#X connect 20 0 16 0;
#X connect 21 0 19 1;
#X connect 21 0 20 1;
#X connect 22 0 21 0;
#X restore 137 436 pd drums;
#X msg 137 285 bd \$1;
#X msg 197 285 sd \$1;
#X msg 257 281 hh \$1;
#X msg 137 251 100;
#X msg 197 182 bang;
#X msg 249 134 bang;
#X obj 249 161 random 100;
#X obj 197 209 random 100;
#X obj 197 232 m_scale 0 100 150 300;
#X obj 153 67 tgl 15 0 empty empty empty 17 7 0 10 -262144 -1 -1 1
1;
#X floatatom 162 132 5 0 0 0 - - -;
#X obj 153 96 c_multimetro 16 125;
#X obj 283 47 loadbang;
#X msg 283 69 140 120;
#X obj 740 136 table \$0-sd 16;
#X obj 740 156 table \$0-hh 16;
#X obj 740 115 table \$0-bd 16;
#X msg 335 314 seed \$1;
#X obj 306 132 lookup \$0-hh;
#X obj 308 292 lookup \$0-sd;
#X obj 89 204 lookup \$0-bd;
#X msg 192 61 1;
#X msg 338 375 write bd.txt;
#X obj 338 397 s \$0-bd;
#X msg 338 353 read bd.txt;
#X msg 339 436 read sd.txt;
#X msg 339 458 write sd.txt;
#X obj 339 480 s \$0-sd;
#X msg 343 514 read hh.txt;
#X msg 343 537 write hh.txt;
#X obj 343 559 s \$0-hh;
#X obj 414 315 loadbang;
#X obj 226 361 r \$0-drumset;
#X obj 249 184 m_scale 0 100 100 200;
#X obj 501 512 list length;
#X floatatom 503 541 5 0 0 0 - - -;
#X msg 377 387 0 0 0 0.8 0.5 0 0 0.8 0.5 0 0 0.8 0 0 0 0.8 0.7;
#X msg 451 364 0 1 0 0 0 0.9 0 0 0 0.9 0 0 0 0.9 0 0.7 0;
#X text 527 76 needs work;
#X obj 561 239 loadbang;
#X obj 226 389 select 1;
#X msg 223 415 0.7;
#X connect 1 0 0 0;
#X connect 2 0 0 0;
#X connect 3 0 0 0;
#X connect 4 0 1 0;
#X connect 5 0 8 0;
#X connect 6 0 7 0;
#X connect 7 0 34 0;
#X connect 8 0 9 0;
#X connect 9 0 2 0;
#X connect 10 0 12 0;
#X connect 12 0 11 0;
#X connect 12 0 19 0;
#X connect 12 0 20 0;
#X connect 12 0 21 0;
#X connect 13 0 14 0;
#X connect 13 0 22 0;
#X connect 14 0 12 2;
#X connect 19 0 7 0;
#X connect 20 0 8 0;
#X connect 21 0 4 0;
#X connect 22 0 10 0;
#X connect 23 0 24 0;
#X connect 25 0 24 0;
#X connect 26 0 28 0;
#X connect 27 0 28 0;
#X connect 29 0 31 0;
#X connect 30 0 31 0;
#X connect 32 0 25 0;
#X connect 32 0 26 0;
#X connect 32 0 29 0;
#X connect 33 0 41 0;
#X connect 34 0 3 0;
#X connect 35 0 36 0;
#X connect 37 0 35 0;
#X connect 37 0 28 0;
#X connect 38 0 24 0;
#X connect 38 0 35 0;
#X connect 41 0 42 0;
#X connect 41 1 0 1;
#X connect 42 0 0 1;
#X restore 655 173 pd drumstuff;
#N canvas 0 0 721 361 touch2grid 0;
#X obj 67 61 r #touch;
#X obj 67 82 route down;
#X obj 67 120 list split 1;
#X obj 107 160 unpack 0 0;
#X obj 107 181 m_touch2grid \$0 3 3;
#X obj 107 206 pack 0 0;
#X obj 254 63 r #touch;
#X obj 254 122 list split 1;
#X obj 294 162 unpack 0 0;
#X obj 294 183 m_touch2grid \$0 3 3;
#X obj 294 208 pack 0 0;
#X obj 421 67 r #touch;
#X obj 421 126 list split 1;
#X obj 461 166 unpack 0 0;
#X obj 461 187 m_touch2grid \$0 3 3;
#X obj 461 212 pack 0 0;
#X obj 254 84 route up;
#X obj 421 88 route xy;
#X obj 107 237 outlet;
#X obj 294 239 outlet;
#X obj 461 243 outlet;
#X connect 0 0 1 0;
#X connect 1 0 2 0;
#X connect 2 1 3 0;
#X connect 3 0 4 0;
#X connect 3 1 4 1;
#X connect 4 0 5 0;
#X connect 4 1 5 1;
#X connect 5 0 18 0;
#X connect 6 0 16 0;
#X connect 7 1 8 0;
#X connect 8 0 9 0;
#X connect 8 1 9 1;
#X connect 9 0 10 0;
#X connect 9 1 10 1;
#X connect 10 0 19 0;
#X connect 11 0 17 0;
#X connect 12 1 13 0;
#X connect 13 0 14 0;
#X connect 13 1 14 1;
#X connect 14 0 15 0;
#X connect 14 1 15 1;
#X connect 15 0 20 0;
#X connect 16 0 7 0;
#X connect 17 0 12 0;
#X restore 832 99 pd touch2grid;
#X obj 832 170 s \$0-touchdown;
#X obj 876 141 s \$0-touchup;
#X obj 920 120 s \$0-touchxy;
#N canvas 0 0 816 593 debug 0;
#X obj 265 249 netsend 1;
#X msg 358 217 connect 192.168.0.1 6000;
#X obj 261 194 spigot;
#X obj 264 147 list prepend send;
#X obj 263 171 list trim;
#X obj 264 120 r DEBUG;
#X obj 430 100 loadbang;
#X msg 211 214 disconnect;
#X obj 272 280 tgl 15 0 empty empty empty 17 7 0 10 -262144 -1 -1 0
1;
#X obj 428 125 inlet;
#X obj 428 157 select 1;
#X connect 0 0 2 1;
#X connect 0 0 8 0;
#X connect 1 0 0 0;
#X connect 2 0 0 0;
#X connect 3 0 4 0;
#X connect 4 0 2 0;
#X connect 5 0 3 0;
#X connect 7 0 0 0;
#X connect 9 0 10 0;
#X connect 10 0 1 0;
#X restore 662 321 pd debug;
#X obj 153 87 10b-keyboard;
#X obj 153 117 + 48;
#X obj 217 143 tgl 15 0 empty empty empty 17 7 0 10 -262144 -1 -1 0
1;
#X obj 318 142 tgl 15 0 empty empty empty 17 7 0 10 -262144 -1 -1 0
1;
#X text 252 94 6 button keyboard;
#X obj 662 280 loadbang;
#X msg 662 301 0;
#X obj 153 143 spigot 0;
#X obj 251 141 spigot 1;
#X obj 136 572 *~ 0.3;
#X connect 0 0 10 0;
#X connect 1 0 0 0;
#X connect 1 0 7 0;
#X connect 1 0 13 1;
#X connect 2 0 1 0;
#X connect 3 0 14 0;
#X connect 5 0 13 0;
#X connect 6 0 5 0;
#X connect 8 0 13 2;
#X connect 10 0 3 0;
#X connect 11 0 10 1;
#X connect 12 0 11 0;
#X connect 13 0 9 0;
#X connect 13 0 21 0;
#X connect 14 0 26 1;
#X connect 15 0 16 0;
#X connect 17 0 19 0;
#X connect 17 0 18 0;
#X connect 18 0 8 0;
#X connect 19 0 6 0;
#X connect 21 0 3 1;
#X connect 21 0 14 1;
#X connect 22 0 23 0;
#X connect 23 0 2 0;
#X connect 24 0 25 0;
#X connect 24 1 25 0;
#X connect 25 0 27 0;
#X connect 26 0 55 0;
#X connect 27 0 26 0;
#X connect 28 0 30 0;
#X connect 29 0 4 0;
#X connect 29 1 4 1;
#X connect 30 0 29 1;
#X connect 31 0 54 0;
#X connect 33 0 21 1;
#X connect 34 0 5 0;
#X connect 37 0 15 0;
#X connect 38 0 4 0;
#X connect 39 0 4 1;
#X connect 41 0 42 0;
#X connect 41 1 43 0;
#X connect 41 2 44 0;
#X connect 46 0 47 0;
#X connect 47 0 53 0;
#X connect 48 0 53 1;
#X connect 49 0 54 1;
#X connect 51 0 52 0;
#X connect 52 0 45 0;
#X connect 53 0 1 0;
#X connect 54 0 1 0;
#X connect 55 0 29 0;
