#N canvas 116 38 1067 759 10;
#X declare -path .;
#X declare -path rj;
#X declare -path .;
#X obj 153 222 sig~ 0;
#X obj 153 197 mtof;
#X floatatom 72 155 5 0 0 0 - - -;
#X obj 153 378 e_beequad;
#X obj 139 685 soundoutput;
#X obj 293 280 mtof;
#X floatatom 304 262 5 0 0 2 filter_freq - -;
#X floatatom 92 227 5 0 0 0 - - -;
#X floatatom 381 295 5 0 500 2 key_follow% - -;
#X floatatom 293 351 5 0 0 0 - - -;
#X obj 152 246 s_osc \$0 square;
#X msg 254 193 pwmdepth 10 \, pwmfreq 2;
#X obj 254 171 loadbang;
#X obj 293 319 m_keyfollow;
#X obj 154 406 e_beequad;
#X obj 435 187 loadbang;
#X msg 481 214 100;
#X msg 435 215 110;
#N canvas 0 0 450 300 init 0;
#X obj 86 68 declare -path .;
#X obj 87 91 declare -path rj;
#X restore 524 58 pd init;
#X obj 227 384 u_lowpassq 500 5;
#X obj 73 104 loadbang;
#X msg 73 125 48;
#X obj 35 281 soundinput;
#N canvas 0 0 675 557 breath 0;
#X obj 154 133 env~;
#X obj 155 176 clip 0 30;
#X obj 156 196 / 30;
#X obj 209 129 * -1;
#X obj 209 150 + 100;
#X obj 154 156 +;
#X msg 208 108 70;
#X obj 208 86 loadbang;
#X text 204 65 threshold (between 0 and 100);
#X obj 154 40 inlet~;
#N canvas 477 248 450 300 follower 0;
#X obj 142 99 +;
#X text 228 99 long-term loudness;
#X obj 142 64 inlet;
#X text 177 36 input;
#X obj 174 100 * 0.94;
#X obj 142 122 * 0.06;
#X obj 142 168 outlet;
#X connect 0 0 4 0;
#X connect 0 0 5 0;
#X connect 2 0 0 0;
#X connect 4 0 0 1;
#X connect 5 0 6 0;
#X restore 156 218 pd follower;
#X obj 156 246 outlet;
#X text 426 37 from Amaury;
#X connect 0 0 5 0;
#X connect 1 0 2 0;
#X connect 2 0 10 0;
#X connect 3 0 4 0;
#X connect 3 0 5 1;
#X connect 4 0 1 2;
#X connect 4 0 2 1;
#X connect 5 0 1 0;
#X connect 6 0 3 0;
#X connect 7 0 6 0;
#X connect 9 0 0 0;
#X connect 10 0 11 0;
#X restore 35 348 pd breath;
#X obj 135 543 *~;
#X obj 35 410 sig~;
#X obj 224 572 loadbang;
#X obj 136 615 e_chorusr ccc;
#X msg 224 592 freq 0.8 \, mod 2.3;
#X obj 251 117 r \$0-key;
#N canvas 0 0 1170 847 map-touch 1;
#X text 940 252 down finger x y;
#X text 941 270 up finger x y;
#X text 942 289 xy finger x y;
#N canvas 369 52 776 448 make-penta 0;
#X obj 104 66 inlet;
#N canvas 0 0 619 485 quickmajor 0;
#X obj 45 81 t a a;
#X obj 110 146 * 12;
#X obj 45 237 +;
#X obj 45 304 outlet;
#X obj 45 41 inlet;
#X obj 289 191 loadbang;
#X obj 293 45 inlet;
#X text 293 24 base note;
#X text 41 18 major step;
#X obj 289 237 s \$0-major;
#X obj 45 175 tabread \$0-major;
#X floatatom 57 146 5 0 0 0 - - -;
#X msg 289 214 0 0 2 4 5 7 9 11;
#X obj 289 261 table \$0-major 7;
#X obj 45 120 mod 7;
#X obj 110 120 div 7;
#X obj 45 260 +;
#X connect 0 0 14 0;
#X connect 0 1 15 0;
#X connect 1 0 2 1;
#X connect 2 0 16 0;
#X connect 4 0 0 0;
#X connect 5 0 12 0;
#X connect 6 0 16 1;
#X connect 10 0 2 0;
#X connect 12 0 9 0;
#X connect 14 0 10 0;
#X connect 14 0 11 0;
#X connect 15 0 1 0;
#X connect 16 0 3 0;
#X restore 104 284 pd quickmajor;
#X obj 104 198 moses 3;
#X obj 150 224 + 1;
#X text 301 118 Lets use a pentatonic scale here \, which in C only
has the scale steps: C \, D \, E \, G \, A.;
#X text 296 155 These are the steps 0 \, 1 \, 2 \, 4 \, 5 in a major
scale.;
#X obj 104 102 clip 0 4;
#X floatatom 50 67 5 0 0 0 - - -;
#X obj 104 130 int;
#X floatatom 113 319 5 0 0 0 - - -;
#X floatatom 209 255 5 0 0 1 base_note - -;
#X obj 192 64 inlet;
#X text 299 181 So we let 0 \, 1 and 2 pass unchanged \, and add 1
to 3 and 4 to make them 4 and 5;
#X text 217 286 "quickmajor" converts to midi notes.;
#X obj 104 359 outlet;
#X text 193 42 base note;
#X text 55 39 penta steps 0...4;
#X connect 0 0 6 0;
#X connect 1 0 9 0;
#X connect 1 0 14 0;
#X connect 2 0 1 0;
#X connect 2 1 3 0;
#X connect 3 0 1 0;
#X connect 6 0 8 0;
#X connect 7 0 6 0;
#X connect 8 0 2 0;
#X connect 10 0 1 1;
#X connect 11 0 1 1;
#X restore 951 476 pd make-penta;
#X floatatom 730 271 5 0 0 1 base_note - -;
#X obj 972 392 loadbang;
#X floatatom 960 505 5 0 0 0 - - -;
#X msg 972 413 48;
#X obj 722 67 r #touch;
#X obj 722 119 route down xy;
#N canvas 469 318 738 484 map-finger-to-octave 0;
#X obj 120 96 unpack 0 0;
#X obj 80 32 inlet;
#X text 215 94 x y;
#X floatatom 158 198 5 0 0 0 - - -;
#X floatatom 137 255 5 0 0 0 - - -;
#X obj 120 228 div 64;
#X text 186 222 The screen is 320 px large. We divided it into 5 parts
\, each of which is 320/5 = 64 pixels high.;
#X msg 617 172 320;
#X obj 617 199 / 5;
#X floatatom 617 224 5 0 0 0 - - -;
#X obj 120 375 outlet;
#X text 185 252 [div 64] gives us the index number from 0 to 4;
#X obj 120 163 select 1;
#X obj 120 193 f;
#X obj 80 58 list split 1;
#X text 190 135 we're only interested in the right side of the screen.
;
#X obj 120 136 >= 220;
#X obj 120 337 -;
#X msg 120 313 4 \$1;
#X text 172 323 finally we invert the direction because y=0 is the
top of the screen \, which feel unnatural for notes;
#X connect 0 0 16 0;
#X connect 0 1 13 1;
#X connect 1 0 14 0;
#X connect 3 0 5 0;
#X connect 5 0 4 0;
#X connect 5 0 18 0;
#X connect 7 0 8 0;
#X connect 8 0 9 0;
#X connect 12 0 13 0;
#X connect 13 0 5 0;
#X connect 14 1 0 0;
#X connect 16 0 12 0;
#X connect 17 0 10 0;
#X connect 18 0 17 0;
#X restore 722 202 pd map-finger-to-octave;
#X obj 722 246 * 12;
#X obj 722 226 + 1;
#X obj 972 443 t b a;
#X obj 951 535 s \$0-key;
#X obj 710 375 r #touch;
#X obj 301 86 r \$0-touchdown;
#X text 376 115 ignore center region;
#X obj 301 175 select 0 1;
#N canvas 0 0 619 485 quickmajor 0;
#X obj 45 81 t a a;
#X obj 110 146 * 12;
#X obj 45 237 +;
#X obj 45 304 outlet;
#X obj 45 41 inlet;
#X obj 289 191 loadbang;
#X obj 293 45 inlet;
#X text 293 24 base note;
#X text 41 18 major step;
#X obj 289 237 s \$0-major;
#X obj 45 175 tabread \$0-major;
#X floatatom 57 146 5 0 0 0 - - -;
#X msg 289 214 0 0 2 4 5 7 9 11;
#X obj 289 261 table \$0-major 7;
#X obj 45 120 mod 7;
#X obj 110 120 div 7;
#X obj 45 260 +;
#X connect 0 0 14 0;
#X connect 0 1 15 0;
#X connect 1 0 2 1;
#X connect 2 0 16 0;
#X connect 4 0 0 0;
#X connect 5 0 12 0;
#X connect 6 0 16 1;
#X connect 10 0 2 0;
#X connect 12 0 9 0;
#X connect 14 0 10 0;
#X connect 14 0 11 0;
#X connect 15 0 1 0;
#X connect 16 0 3 0;
#X restore 301 331 pd quickmajor;
#X obj 382 246 loadbang;
#X msg 382 267 48;
#X obj 382 297 t b a;
#X obj 301 364 s \$0-key;
#X text 362 144 right hand \, three fingers: 0 \, 1 \, 2;
#X msg 301 204 4;
#X msg 334 204 5;
#X text 81 176 left hand \, two fingers: 0 \, 1;
#X obj 301 113 route 0 2;
#X obj 232 680 +;
#X msg 256 652 1;
#X msg 221 651 -1;
#X obj 276 680 f 1;
#X floatatom 232 725 5 0 0 0 - - -;
#X obj 232 746 s \$0-octave;
#X obj 449 243 r \$0-octave;
#X obj 449 285 * 12;
#X floatatom 496 342 5 0 0 0 - - -;
#X obj 232 704 clip 3 5;
#X obj 546 324 s DEBUG;
#X obj 546 294 list prepend TOUCH-OCT;
#X obj 221 611 select 0 1;
#N canvas 0 0 1086 424 octave-button 0;
#X obj 92 92 r \$0-touchdown;
#X obj 205 217 == 2;
#X text 259 217 only left index finger;
#X obj 138 251 spigot;
#X obj 92 147 route 2;
#X text 157 148 ignore right hand (x-grid == 2);
#X obj 138 183 unpack 0 0;
#X obj 138 375 outlet;
#X obj 567 213 == 2;
#X text 621 213 only left index finger;
#X obj 500 247 spigot;
#X obj 454 143 route 2;
#X text 519 144 ignore right hand (x-grid == 2);
#X obj 500 179 unpack 0 0;
#X obj 500 371 outlet;
#X obj 454 88 r \$0-touchup;
#X obj 898 205 == 2;
#X text 952 205 only left index finger;
#X obj 831 239 spigot;
#X obj 785 135 route 2;
#X text 850 136 ignore right hand (x-grid == 2);
#X obj 831 171 unpack 0 0;
#X obj 785 80 r \$0-touchxy;
#X obj 831 287 t a b;
#X obj 831 265 change;
#X connect 0 0 4 0;
#X connect 1 0 3 1;
#X connect 3 0 7 0;
#X connect 4 1 6 0;
#X connect 6 0 3 0;
#X connect 6 1 1 0;
#X connect 8 0 10 1;
#X connect 10 0 14 0;
#X connect 11 1 13 0;
#X connect 13 0 10 0;
#X connect 13 1 8 0;
#X connect 15 0 11 0;
#X connect 16 0 18 1;
#X connect 18 0 24 0;
#X connect 19 1 21 0;
#X connect 21 0 18 0;
#X connect 21 1 16 0;
#X connect 22 0 19 0;
#X connect 23 0 7 0;
#X connect 23 1 14 0;
#X connect 24 0 23 0;
#X restore 221 494 pd octave-button;
#X obj 330 523 b;
#N canvas 0 0 450 300 once 0;
#X obj 144 113 inlet;
#X obj 144 171 spigot 1;
#X obj 211 110 inlet;
#X msg 207 137 1;
#X msg 208 172 0;
#X obj 144 208 t a b;
#X obj 144 237 outlet;
#X connect 0 0 1 0;
#X connect 1 0 5 0;
#X connect 2 0 3 0;
#X connect 3 0 1 1;
#X connect 4 0 1 1;
#X connect 5 0 6 0;
#X connect 5 1 4 0;
#X restore 221 561 pd once;
#X obj 718 451 r \$0-touchdown;
#X obj 718 495 route 1;
#X obj 718 521 route 0 1;
#X obj 668 576 b;
#X obj 786 594 f;
#X obj 814 594 + 1;
#X obj 668 600 f 0;
#X obj 702 601 ==;
#X obj 668 626 s \$0-drumset;
#X obj 786 641 s \$0-drumpattern;
#X floatatom 770 681 5 0 0 0 - - -;
#X msg 655 457 1 1;
#X obj 786 617 mod 16;
#X obj 751 557 b;
#X obj 618 700 rj_image drums.jpg;
#X obj 579 646 select 0;
#X obj 590 543 loadbang;
#X msg 463 512 320;
#X obj 461 540 / 2;
#X floatatom 464 568 5 0 0 0 - - -;
#X msg 632 668 move 160 50;
#X msg 624 572 0;
#X msg 532 672 move 500 500;
#X text 523 708 outside;
#X text 711 431 No drums for now!;
#X connect 3 0 6 0;
#X connect 3 0 14 0;
#X connect 5 0 7 0;
#X connect 7 0 13 0;
#X connect 8 0 9 0;
#X connect 9 0 10 0;
#X connect 9 1 10 0;
#X connect 10 0 12 0;
#X connect 11 0 4 0;
#X connect 12 0 11 0;
#X connect 13 0 3 0;
#X connect 13 1 3 1;
#X connect 16 0 28 0;
#X connect 18 0 25 0;
#X connect 18 1 26 0;
#X connect 19 0 23 0;
#X connect 20 0 21 0;
#X connect 21 0 22 0;
#X connect 22 0 19 0;
#X connect 22 1 19 1;
#X connect 25 0 19 0;
#X connect 26 0 19 0;
#X connect 28 0 18 0;
#X connect 28 1 19 0;
#X connect 29 0 38 0;
#X connect 30 0 29 0;
#X connect 31 0 29 0;
#X connect 32 0 29 1;
#X connect 33 0 34 0;
#X connect 35 0 36 0;
#X connect 35 0 40 0;
#X connect 36 0 37 0;
#X connect 36 0 22 0;
#X connect 38 0 32 0;
#X connect 38 0 33 0;
#X connect 40 0 39 0;
#X connect 41 0 31 0;
#X connect 41 1 30 0;
#X connect 42 0 44 0;
#X connect 42 1 43 0;
#X connect 43 0 44 1;
#X connect 44 0 41 0;
#X connect 46 0 47 0;
#X connect 47 0 48 0;
#X connect 47 1 58 0;
#X connect 48 0 51 0;
#X connect 49 0 57 0;
#X connect 50 0 49 1;
#X connect 51 0 52 0;
#X connect 51 0 53 0;
#X connect 51 0 60 0;
#X connect 52 0 51 1;
#X connect 56 0 46 0;
#X connect 57 0 50 0;
#X connect 57 0 54 0;
#X connect 57 0 55 0;
#X connect 58 0 49 0;
#X connect 60 0 67 0;
#X connect 60 1 65 0;
#X connect 61 0 66 0;
#X connect 62 0 63 0;
#X connect 63 0 64 0;
#X connect 65 0 59 0;
#X connect 66 0 51 0;
#X connect 67 0 59 0;
#X restore 523 109 pd map-touch;
#X obj 336 362 r \$0-reso;
#X obj 293 228 r \$0-filter;
#N canvas 0 0 626 409 map-accel 0;
#X obj 199 34 r #accelerate;
#X obj 199 78 unpack 0 0 0;
#X obj 199 221 m_scale -2 2 80 120;
#X obj 197 241 int;
#X obj 197 281 change;
#X obj 239 154 clip 3 8;
#X obj 239 131 m_scale -2 2 3 8;
#X obj 197 312 s \$0-filter;
#X obj 239 181 s \$0-reso;
#X obj 197 261 clip 80 120;
#X obj 199 55 m_speedlimit 50;
#X connect 0 0 10 0;
#X connect 1 0 2 0;
#X connect 1 1 6 0;
#X connect 2 0 3 0;
#X connect 3 0 9 0;
#X connect 4 0 7 0;
#X connect 5 0 8 0;
#X connect 6 0 5 0;
#X connect 9 0 4 0;
#X connect 10 0 1 0;
#X restore 523 84 pd map-accel;
#N canvas 0 0 780 494 stuff 0;
#X obj 81 128 random 5;
#X msg 169 240 30;
#X obj 168 219 loadbang;
#X floatatom 84 302 5 0 0 0 - - -;
#X obj 84 66 tgl 15 0 empty empty empty 17 7 0 10 -262144 -1 -1 0 1
;
#X obj 84 90 metro 250;
#X floatatom 188 270 5 0 0 0 - - -;
#X obj 81 153 moses 3;
#X obj 127 179 + 1;
#X floatatom 120 234 5 0 0 0 - - -;
#X text 158 163 pentatonic;
#X obj 185 119 * 12;
#X obj 181 73 random 3;
#X obj 183 98 + 2;
#X obj 85 109 t b b;
#X floatatom 135 68 5 0 0 0 - - -;
#X msg 498 169 320;
#X obj 496 193 / 5;
#X floatatom 496 214 5 0 0 0 - - -;
#X text 414 117 Touch interface: (0 0) -> 100 64;
#X obj 417 195 * 64;
#X obj 396 144 hradio 15 1 0 8 empty empty empty 0 -8 0 10 -262144
-1 -1 0;
#X floatatom 418 222 5 0 0 0 - - -;
#X obj 396 164 + 1;
#X connect 0 0 7 0;
#X connect 2 0 1 0;
#X connect 4 0 5 0;
#X connect 5 0 14 0;
#X connect 7 0 9 0;
#X connect 7 1 8 0;
#X connect 8 0 9 0;
#X connect 11 0 6 0;
#X connect 12 0 13 0;
#X connect 13 0 11 0;
#X connect 14 0 0 0;
#X connect 14 1 12 0;
#X connect 15 0 5 1;
#X connect 16 0 17 0;
#X connect 17 0 18 0;
#X connect 20 0 22 0;
#X connect 21 0 23 0;
#X connect 23 0 20 0;
#X restore 655 150 pd stuff;
#X obj 25 644 catch~ \$0-outl;
#X obj 262 639 catch~ \$0-outr;
#N canvas 158 54 973 491 drumstuff 0;
#X obj 359 190 line~;
#X obj 359 156 pack 0 100;
#X obj 85 309 throw~ \$0-outl;
#X obj 341 309 throw~ \$0-outr;
#X obj 341 253 *~;
#X obj 85 253 *~;
#X obj 85 178 moogadrum;
#X obj 359 66 r \$0-drumset;
#X obj 359 94 select 1;
#X obj 85 133 loadbang;
#X msg 85 154 1;
#X obj 145 152 r \$0-drumpattern;
#X floatatom 164 177 5 0 0 0 - - -;
#X msg 359 123 0.5;
#X msg 606 285 move 500 500;
#X text 592 306 outside;
#X obj 603 348 rj_image head1.jpg;
#X obj 790 350 rj_image head2.jpg;
#X msg 706 285 move 160 160;
#X obj 610 216 f;
#X obj 640 218 ==;
#X obj 608 238 select 0 1;
#X obj 603 161 spigot;
#X obj 604 187 b;
#X obj 599 118 r DRUMBEAT;
#X obj 514 180 loadbang;
#X obj 500 229 b;
#X obj 494 148 select 0;
#X msg 491 358 move 500 500;
#X msg 809 283 move 500 500;
#X msg 909 283 move 160 160;
#X connect 0 0 4 1;
#X connect 0 0 5 1;
#X connect 1 0 0 0;
#X connect 4 0 3 0;
#X connect 5 0 2 0;
#X connect 6 0 5 0;
#X connect 6 1 4 0;
#X connect 7 0 8 0;
#X connect 7 0 27 0;
#X connect 7 0 22 1;
#X connect 8 0 13 0;
#X connect 8 1 0 0;
#X connect 9 0 10 0;
#X connect 10 0 6 0;
#X connect 11 0 6 1;
#X connect 11 0 12 0;
#X connect 13 0 1 0;
#X connect 14 0 16 0;
#X connect 18 0 16 0;
#X connect 19 0 20 0;
#X connect 19 0 21 0;
#X connect 20 0 19 1;
#X connect 21 0 14 0;
#X connect 21 0 30 0;
#X connect 21 1 18 0;
#X connect 21 1 29 0;
#X connect 22 0 23 0;
#X connect 23 0 19 0;
#X connect 24 0 22 0;
#X connect 25 0 26 0;
#X connect 26 0 28 0;
#X connect 27 0 26 0;
#X connect 28 0 16 0;
#X connect 28 0 17 0;
#X connect 29 0 17 0;
#X connect 30 0 17 0;
#X restore 655 173 pd drumstuff;
#N canvas 0 0 721 361 touch2grid 0;
#X obj 67 61 r #touch;
#X obj 67 82 route down;
#X obj 67 120 list split 1;
#X obj 107 160 unpack 0 0;
#X obj 107 181 m_touch2grid \$0 3 3;
#X obj 107 206 pack 0 0;
#X obj 254 63 r #touch;
#X obj 254 122 list split 1;
#X obj 294 162 unpack 0 0;
#X obj 294 183 m_touch2grid \$0 3 3;
#X obj 294 208 pack 0 0;
#X obj 421 67 r #touch;
#X obj 421 126 list split 1;
#X obj 461 166 unpack 0 0;
#X obj 461 187 m_touch2grid \$0 3 3;
#X obj 461 212 pack 0 0;
#X obj 254 84 route up;
#X obj 421 88 route xy;
#X obj 107 237 outlet;
#X obj 294 239 outlet;
#X obj 461 243 outlet;
#X connect 0 0 1 0;
#X connect 1 0 2 0;
#X connect 2 1 3 0;
#X connect 3 0 4 0;
#X connect 3 1 4 1;
#X connect 4 0 5 0;
#X connect 4 1 5 1;
#X connect 5 0 18 0;
#X connect 6 0 16 0;
#X connect 7 1 8 0;
#X connect 8 0 9 0;
#X connect 8 1 9 1;
#X connect 9 0 10 0;
#X connect 9 1 10 1;
#X connect 10 0 19 0;
#X connect 11 0 17 0;
#X connect 12 1 13 0;
#X connect 13 0 14 0;
#X connect 13 1 14 1;
#X connect 14 0 15 0;
#X connect 14 1 15 1;
#X connect 15 0 20 0;
#X connect 16 0 7 0;
#X connect 17 0 12 0;
#X restore 832 99 pd touch2grid;
#X obj 832 170 s \$0-touchdown;
#X obj 876 141 s \$0-touchup;
#X obj 920 120 s \$0-touchxy;
#N canvas 0 0 816 593 debug 0;
#X obj 265 249 netsend 1;
#X msg 358 217 connect 192.168.0.1 6000;
#X obj 261 194 spigot;
#X obj 264 147 list prepend send;
#X obj 263 171 list trim;
#X obj 264 120 r DEBUG;
#X obj 430 100 loadbang;
#X msg 211 214 disconnect;
#X obj 272 280 tgl 15 0 empty empty empty 17 7 0 10 -262144 -1 -1 0
1;
#X obj 428 125 inlet;
#X obj 428 157 select 1;
#X connect 0 0 2 1;
#X connect 0 0 8 0;
#X connect 1 0 0 0;
#X connect 2 0 0 0;
#X connect 3 0 4 0;
#X connect 4 0 2 0;
#X connect 5 0 3 0;
#X connect 7 0 0 0;
#X connect 9 0 10 0;
#X connect 10 0 1 0;
#X restore 662 321 pd debug;
#X obj 153 87 10b-keyboard;
#X obj 153 117 + 48;
#X obj 217 143 tgl 15 0 empty empty empty 17 7 0 10 -262144 -1 -1 0
1;
#X obj 318 142 tgl 15 0 empty empty empty 17 7 0 10 -262144 -1 -1 0
1;
#X text 252 94 6 button keyboard;
#X obj 662 280 loadbang;
#X msg 662 301 0;
#X obj 153 143 spigot 0;
#X obj 251 141 spigot 1;
#X obj 136 572 *~ 0.3;
#X obj 662 76 u_loadmeter;
#X obj 16 237 noise~;
#X obj 17 260 *~ 0;
#X obj 61 261 hsl 50 15 0 11 0 0 empty empty empty -2 -8 0 10 -262144
-1 -1 0 1;
#X connect 0 0 10 0;
#X connect 1 0 0 0;
#X connect 1 0 7 0;
#X connect 1 0 13 1;
#X connect 2 0 1 0;
#X connect 3 0 14 0;
#X connect 5 0 13 0;
#X connect 6 0 5 0;
#X connect 8 0 13 2;
#X connect 10 0 3 0;
#X connect 11 0 10 1;
#X connect 12 0 11 0;
#X connect 13 0 9 0;
#X connect 13 0 19 0;
#X connect 14 0 24 1;
#X connect 15 0 17 0;
#X connect 15 0 16 0;
#X connect 16 0 8 0;
#X connect 17 0 6 0;
#X connect 19 0 3 1;
#X connect 19 0 14 1;
#X connect 20 0 21 0;
#X connect 21 0 2 0;
#X connect 22 0 23 0;
#X connect 22 1 23 0;
#X connect 23 0 25 0;
#X connect 24 0 52 0;
#X connect 25 0 24 0;
#X connect 26 0 28 0;
#X connect 27 0 4 0;
#X connect 27 1 4 1;
#X connect 28 0 27 1;
#X connect 29 0 51 0;
#X connect 31 0 19 1;
#X connect 32 0 5 0;
#X connect 35 0 4 0;
#X connect 36 0 4 1;
#X connect 38 0 39 0;
#X connect 38 1 40 0;
#X connect 38 2 41 0;
#X connect 43 0 44 0;
#X connect 44 0 50 0;
#X connect 45 0 50 1;
#X connect 46 0 51 1;
#X connect 48 0 49 0;
#X connect 49 0 42 0;
#X connect 50 0 1 0;
#X connect 51 0 1 0;
#X connect 52 0 27 0;
#X connect 54 0 55 0;
#X connect 55 0 23 0;
#X connect 56 0 55 1;
