#N canvas 267 145 801 553 10;
#X declare -path .;
#X declare -path rj;
#X obj 107 430 soundoutput;
#N canvas 0 0 450 300 init 0;
#X obj 86 68 declare -path .;
#X obj 87 91 declare -path rj;
#X restore 564 101 pd init;
#X obj 279 85 soundinput;
#N canvas 0 0 675 557 breath 0;
#X obj 154 133 env~;
#X obj 155 176 clip 0 30;
#X obj 156 196 / 30;
#X obj 209 129 * -1;
#X obj 209 150 + 100;
#X obj 154 156 +;
#X msg 208 108 70;
#X obj 208 86 loadbang;
#X text 204 65 threshold (between 0 and 100);
#X obj 154 40 inlet~;
#X obj 156 246 outlet;
#X text 426 37 from Amaury;
#X obj 156 218 u_follower followme;
#X obj 286 167 loadbang;
#X msg 375 125 latency 0.8;
#X msg 286 194 latency 0.6;
#X connect 0 0 5 0;
#X connect 1 0 2 0;
#X connect 2 0 12 0;
#X connect 3 0 4 0;
#X connect 3 0 5 1;
#X connect 4 0 1 2;
#X connect 4 0 2 1;
#X connect 5 0 1 0;
#X connect 6 0 3 0;
#X connect 7 0 6 0;
#X connect 9 0 0 0;
#X connect 12 0 10 0;
#X connect 13 0 15 0;
#X connect 15 0 12 1;
#X restore 279 168 pd breath;
#X obj 107 340 *~;
#X obj 196 351 loadbang;
#X obj 107 400 e_chorusr ccc;
#X msg 196 381 freq 0.8 \, mod 2.3;
#N canvas 0 0 626 409 map-accel 0;
#X obj 199 34 r #accelerate;
#X obj 199 78 unpack 0 0 0;
#X obj 199 221 m_scale -2 2 80 120;
#X obj 197 241 int;
#X obj 197 281 change;
#X obj 239 154 clip 3 8;
#X obj 239 131 m_scale -2 2 3 8;
#X obj 197 312 s \$0-filter;
#X obj 239 181 s \$0-reso;
#X obj 197 261 clip 80 120;
#X obj 199 55 m_speedlimit 50;
#X connect 0 0 10 0;
#X connect 1 0 2 0;
#X connect 1 1 6 0;
#X connect 2 0 3 0;
#X connect 3 0 9 0;
#X connect 4 0 7 0;
#X connect 5 0 8 0;
#X connect 6 0 5 0;
#X connect 9 0 4 0;
#X connect 10 0 1 0;
#X restore 564 131 pd map-accel;
#N canvas 0 0 816 593 debug 0;
#X obj 265 249 netsend 1;
#X msg 358 217 connect 192.168.0.1 6000;
#X obj 261 194 spigot;
#X obj 264 147 list prepend send;
#X obj 263 171 list trim;
#X obj 264 120 r DEBUG;
#X obj 430 100 loadbang;
#X msg 211 214 disconnect;
#X obj 272 280 tgl 15 0 empty empty empty 17 7 0 10 -262144 -1 -1 0
1;
#X obj 428 125 inlet;
#X obj 428 157 select 1;
#X connect 0 0 2 1;
#X connect 0 0 8 0;
#X connect 1 0 0 0;
#X connect 2 0 0 0;
#X connect 3 0 4 0;
#X connect 4 0 2 0;
#X connect 5 0 3 0;
#X connect 7 0 0 0;
#X connect 9 0 10 0;
#X connect 10 0 1 0;
#X restore 564 281 pd debug;
#X obj 564 221 loadbang;
#X msg 564 251 0;
#X obj 107 370 *~ 0.3;
#X obj 564 311 u_loadmeter;
#N canvas 0 0 787 537 noisegate 0;
#X obj 208 168 loadbang;
#X obj 105 70 inlet~;
#X obj 104 425 outlet~;
#X obj 106 231 e_dynproc xxxxx;
#X text 234 233 noise gate;
#X msg 208 205 comp2 152 \, comp1 1 \, rel 100 \, att 100 \, thresh
68 \,;
#X connect 0 0 5 0;
#X connect 1 0 3 0;
#X connect 1 0 3 1;
#X connect 3 0 2 0;
#X connect 5 0 3 2;
#X restore 279 138 pd noisegate;
#X obj 279 260 lop~ 20;
#N canvas 257 104 823 378 preferences 0;
#N canvas 77 54 1121 674 scroll-spinners 0;
#X obj 243 85 r #touch;
#X obj 243 204 list split 1;
#X obj 283 244 unpack 0 0;
#X obj 283 265 m_touch2grid mygrid2 10 10;
#X obj 243 131 spigot;
#X obj 282 109 r \$0-showprefs;
#X floatatom 484 271 5 0 0 0 - - -;
#X obj 526 304 moses 39;
#X msg 462 335 0;
#X msg 526 335 1;
#X obj 243 166 route down xy up;
#X msg 454 397 0;
#X obj 279 442 spigot;
#N canvas 0 0 860 308 scroll-scale 0;
#X obj 219 144 s \$0-scale-text;
#X obj 138 40 unpack 0 0 0;
#X floatatom 239 45 5 0 0 0 - - -;
#X obj 138 15 inlet;
#X obj 219 87 u_spinner scale-text;
#X obj 356 21 loadbang;
#X symbolatom 234 116 10 0 0 0 - - -;
#X msg 356 48 items Ionian Dorian Phrygian Lydian Mixolydian Aeolian
Locrian Zeldarian \, resolution 10;
#X connect 1 2 4 0;
#X connect 3 0 1 0;
#X connect 4 0 6 0;
#X connect 4 0 0 0;
#X connect 5 0 7 0;
#X connect 7 0 4 1;
#X restore 279 466 pd scroll-scale;
#X msg 579 412 0;
#X msg 643 412 1;
#X obj 540 447 spigot;
#X obj 643 381 moses 59;
#N canvas 0 0 820 245 scroll-root 0;
#X obj 138 40 unpack 0 0 0;
#X obj 138 15 inlet;
#X obj 219 77 u_spinner scale-text;
#X obj 356 11 loadbang;
#X obj 219 134 s \$0-root-text;
#X floatatom 241 103 5 0 0 0 - - -;
#X msg 388 91 48 49 50 51 52 53 54 55 56 57 58 59 60 61 62 63 64 65
66 67 68 69;
#X msg 387 131 69 68 67 66 65 64 63 62 61 60 59 58 57 56 55 54 53 52
51 50 49 48;
#X msg 356 38 items 69 68 67 66 65 64 63 62 61 60 59 58 57 56 55 54
53 52 51 50 49 48 \, resolution 10;
#X connect 0 2 2 0;
#X connect 1 0 0 0;
#X connect 2 0 4 0;
#X connect 2 0 5 0;
#X connect 3 0 8 0;
#X connect 8 0 2 1;
#X restore 540 471 pd scroll-root;
#X obj 804 422 moses 79;
#X obj 804 540 s \$0-touchmode-text;
#X obj 804 466 spigot;
#X obj 859 467 r \$0-showprefs;
#X obj 804 444 b;
#X obj 804 497 f 1;
#X obj 838 496 ==;
#X obj 462 303 moses 30;
#X obj 579 380 moses 50;
#X obj 740 421 moses 70;
#X text 607 300 Row 3 is the "scale" text grids;
#X text 713 382 Row 5 the "root note" text grids;
#X text 881 420 Row 7touch mode;
#X text 308 512 Waveform;
#X msg 162 542 0;
#X msg 226 542 1;
#X obj 123 577 spigot;
#X obj 162 510 moses 90;
#X obj 226 511 moses 99;
#N canvas 0 0 820 245 scroll-waveform 0;
#X obj 138 40 unpack 0 0 0;
#X obj 138 15 inlet;
#X obj 342 11 loadbang;
#X floatatom 241 103 5 0 0 0 - - -;
#X obj 219 77 u_spinner waveform;
#X msg 342 38 items 0 1 2 3 \, resolution 10;
#X obj 219 134 s \$0-waveform;
#X connect 0 2 4 0;
#X connect 1 0 0 0;
#X connect 2 0 5 0;
#X connect 4 0 3 0;
#X connect 4 0 6 0;
#X connect 5 0 4 1;
#X restore 123 601 pd scroll-waveform;
#X connect 0 0 4 0;
#X connect 1 1 2 0;
#X connect 2 0 3 0;
#X connect 2 1 3 1;
#X connect 3 2 26 0;
#X connect 3 2 27 0;
#X connect 3 2 28 0;
#X connect 3 2 36 0;
#X connect 4 0 10 0;
#X connect 5 0 4 1;
#X connect 6 0 26 0;
#X connect 7 0 9 0;
#X connect 7 1 8 0;
#X connect 8 0 12 1;
#X connect 9 0 12 1;
#X connect 10 0 1 0;
#X connect 10 1 12 0;
#X connect 10 1 16 0;
#X connect 10 1 35 0;
#X connect 10 2 11 0;
#X connect 11 0 16 1;
#X connect 11 0 12 1;
#X connect 12 0 13 0;
#X connect 14 0 16 1;
#X connect 15 0 16 1;
#X connect 16 0 18 0;
#X connect 17 0 15 0;
#X connect 17 1 14 0;
#X connect 19 0 23 0;
#X connect 21 0 24 0;
#X connect 22 0 21 1;
#X connect 23 0 21 0;
#X connect 24 0 25 0;
#X connect 24 0 20 0;
#X connect 25 0 24 1;
#X connect 26 0 8 0;
#X connect 26 1 7 0;
#X connect 27 0 14 0;
#X connect 27 1 17 0;
#X connect 28 1 19 0;
#X connect 33 0 35 1;
#X connect 34 0 35 1;
#X connect 35 0 38 0;
#X connect 36 0 33 0;
#X connect 36 1 37 0;
#X connect 37 0 34 0;
#X connect 37 1 33 0;
#X restore 84 101 pd scroll-spinners;
#N canvas 0 0 850 521 preferences-display 0;
#X obj 292 194 select 44 45 54 55;
#X msg 292 229 1;
#X obj 73 21 r #touch;
#X obj 73 42 route down;
#X obj 73 80 list split 1;
#X obj 113 120 unpack 0 0;
#X obj 113 141 m_touch2grid mygrid2 10 10;
#X obj 292 253 s \$0-showprefs;
#X obj 292 166 spigot 1;
#X obj 345 123 r \$0-showprefs;
#X obj 345 144 ==;
#X obj 435 262 s \$0-showprefs;
#X obj 435 195 select 8 9 18 19;
#X msg 435 230 0;
#X obj 435 172 spigot 1;
#X obj 88 310 r \$0-showprefs;
#X text 87 284 background for preferences;
#X obj 88 333 g_showimage2 preferences.gif 160 160;
#X obj 88 420 rj_image preferences.gif;
#X obj 143 364 loadbang;
#X msg 143 385 move 500 500;
#X text 357 332 Why?;
#X connect 0 0 1 0;
#X connect 0 1 1 0;
#X connect 0 2 1 0;
#X connect 0 3 1 0;
#X connect 1 0 7 0;
#X connect 2 0 3 0;
#X connect 3 0 4 0;
#X connect 4 1 5 0;
#X connect 5 0 6 0;
#X connect 5 1 6 1;
#X connect 6 2 8 0;
#X connect 6 2 14 0;
#X connect 8 0 0 0;
#X connect 9 0 10 0;
#X connect 9 0 14 1;
#X connect 10 0 8 1;
#X connect 12 0 13 0;
#X connect 12 1 13 0;
#X connect 12 2 13 0;
#X connect 12 3 13 0;
#X connect 13 0 11 0;
#X connect 14 0 12 0;
#X connect 15 0 17 0;
#X connect 17 0 18 0;
#X connect 19 0 20 0;
#X connect 20 0 18 0;
#X restore 83 51 pd preferences-display;
#X obj 396 50 s \$0-showprefs;
#X text 275 49 sends 0 or 1 to:;
#X text 230 95 GUI inputs: setting root note and scale by up/down motions
like a number box \, toggle touch mode;
#X obj 232 166 s \$0-scale-text;
#X obj 501 165 s \$0-touchmode-text;
#X obj 361 165 s \$0-root-text;
#X text 520 141 0/1;
#X text 355 144 root as midi note;
#X text 229 142 modes as symbol;
#X obj 501 142 tgl 15 0 empty empty empty 17 7 0 10 -262144 -1 -1 0
1;
#X obj 396 28 tgl 15 0 empty empty empty 17 7 0 10 -262144 -1 -1 0
1;
#N canvas 0 0 649 276 scale-display 0;
#X obj 356 31 loadbang;
#X obj 66 120 r \$0-showprefs;
#X msg 238 116 text \$1;
#X obj 238 28 r \$0-scale-text;
#X msg 256 68 list Ionian;
#X msg 356 100 size 22 \, pos 240 108;
#X obj 66 158 g_showtext Ionian 240 108;
#X connect 0 0 4 0;
#X connect 0 0 5 0;
#X connect 1 0 6 0;
#X connect 2 0 6 1;
#X connect 3 0 2 0;
#X connect 4 0 2 0;
#X connect 5 0 6 1;
#X restore 88 196 pd scale-display;
#N canvas 0 0 593 324 root-note-display 0;
#X obj 334 45 loadbang;
#X obj 67 150 r \$0-showprefs;
#X msg 218 134 text \$1;
#X obj 218 44 r \$0-root-text;
#X msg 283 71 48;
#N canvas 476 323 388 285 num2note 0;
#X obj 19 50 t f f;
#X obj 64 80 div 12;
#X obj 64 100 makefilename %%s%d;
#X msg 64 120 set \$1;
#N canvas 744 41 320 329 n 0;
#X obj 31 31 inlet;
#X obj 31 57 mod 12;
#X obj 31 80 select 0 1 2 3 4 5 6 7 8 9 10 11;
#X msg 62 157 symbol d-;
#X msg 31 117 symbol c-;
#X msg 93 197 symbol e-;
#X msg 108 217 symbol f-;
#X msg 140 137 symbol g-;
#X msg 171 177 symbol a-;
#X msg 202 217 symbol b;
#X obj 58 262 outlet;
#X msg 46 137 symbol c#;
#X msg 77 177 symbol d#;
#X msg 124 117 symbol f#;
#X msg 155 156 symbol g#;
#X msg 187 197 symbol a#;
#X connect 0 0 1 0;
#X connect 1 0 2 0;
#X connect 2 0 4 0;
#X connect 2 1 11 0;
#X connect 2 2 3 0;
#X connect 2 3 12 0;
#X connect 2 4 5 0;
#X connect 2 5 6 0;
#X connect 2 6 13 0;
#X connect 2 7 7 0;
#X connect 2 8 14 0;
#X connect 2 9 8 0;
#X connect 2 10 15 0;
#X connect 2 11 9 0;
#X connect 3 0 10 0;
#X connect 4 0 10 0;
#X connect 5 0 10 0;
#X connect 6 0 10 0;
#X connect 7 0 10 0;
#X connect 8 0 10 0;
#X connect 9 0 10 0;
#X connect 11 0 10 0;
#X connect 12 0 10 0;
#X connect 13 0 10 0;
#X connect 14 0 10 0;
#X connect 15 0 10 0;
#X restore 19 80 pd n;
#X obj 19 150 makefilename;
#X obj 19 180 outlet;
#X obj 19 20 inlet;
#X msg 129 20 version 0.3.0;
#X text 136 52 mmm-notename.pd by Enrique;
#X connect 0 0 4 0;
#X connect 0 1 1 0;
#X connect 1 0 2 0;
#X connect 2 0 3 0;
#X connect 3 0 5 0;
#X connect 4 0 5 0;
#X connect 5 0 6 0;
#X connect 7 0 0 0;
#X restore 218 100 pd num2note;
#X symbolatom 139 126 10 0 0 0 - - -;
#X msg 334 121 size 22 \, pos 240 175;
#X obj 67 173 g_showtext c-4 240 175;
#X connect 0 0 4 0;
#X connect 0 0 7 0;
#X connect 1 0 8 0;
#X connect 2 0 8 1;
#X connect 3 0 5 0;
#X connect 4 0 5 0;
#X connect 5 0 2 0;
#X connect 5 0 6 0;
#X connect 7 0 8 1;
#X restore 89 219 pd root-note-display;
#N canvas 249 114 546 251 touchmode-display 0;
#X obj 339 20 loadbang;
#X obj 36 152 r \$0-showprefs;
#N canvas 0 0 567 379 l2s 0;
#X obj 152 180 list-l2s;
#X msg 205 130 32;
#X obj 205 158 makefilename %c;
#X obj 205 105 loadbang;
#X obj 152 99 inlet;
#X obj 152 234 outlet;
#X text 245 130 SPACE;
#X connect 0 0 5 0;
#X connect 1 0 2 0;
#X connect 2 0 0 1;
#X connect 3 0 1 0;
#X connect 4 0 0 0;
#X restore 187 99 pd l2s;
#X msg 187 121 text \$1;
#X obj 187 19 r \$0-touchmode-text;
#X msg 250 73 off;
#X obj 187 41 select 1 0;
#X msg 187 70 on;
#X msg 339 97 size 22 \, pos 260 240;
#X obj 36 174 g_showtext off 260 240;
#X connect 0 0 5 0;
#X connect 0 0 8 0;
#X connect 1 0 9 0;
#X connect 2 0 3 0;
#X connect 3 0 9 1;
#X connect 4 0 6 0;
#X connect 5 0 2 0;
#X connect 6 0 7 0;
#X connect 6 1 5 0;
#X connect 7 0 2 0;
#X connect 8 0 9 1;
#X restore 89 241 pd touchmode-display;
#X obj 646 164 s \$0-waveform;
#X obj 646 141 hradio 15 1 0 4 empty empty empty 0 -8 0 10 -262144
-1 -1 0;
#N canvas 326 311 729 553 waveform-display 0;
#X obj 334 45 loadbang;
#X obj 67 250 r \$0-showprefs;
#X msg 218 224 text \$1;
#X symbolatom 139 226 10 0 0 0 - - -;
#X obj 218 70 select 0 1 2 3;
#X obj 218 39 r \$0-waveform;
#X obj 218 153 list;
#X msg 218 104 square;
#X msg 241 125 saw;
#X msg 265 104 tri;
#X msg 289 128 sine;
#X obj 67 273 g_showtext square 240 305;
#X msg 334 161 size 22 \, pos 240 305;
#X connect 0 0 12 0;
#X connect 1 0 11 0;
#X connect 2 0 11 1;
#X connect 4 0 7 0;
#X connect 4 1 8 0;
#X connect 4 2 9 0;
#X connect 4 3 10 0;
#X connect 5 0 4 0;
#X connect 6 0 2 0;
#X connect 7 0 6 0;
#X connect 8 0 6 0;
#X connect 9 0 6 0;
#X connect 10 0 6 0;
#X connect 12 0 11 1;
#X restore 91 267 pd waveform-display;
#X connect 11 0 6 0;
#X connect 12 0 2 0;
#X connect 17 0 16 0;
#X restore 564 161 pd preferences;
#X obj 312 204 r \$0-touchmode-text;
#X obj 312 234 ==;
#X obj 279 230 * 1;
#N canvas 495 119 597 592 touchmode 0;
#X obj 66 236 change;
#X obj 147 119 r \$0-touchmode-text;
#X obj 66 87 spigot 1;
#X obj 133 65 r \$0-showprefs;
#X obj 133 87 ==;
#X obj 65 433 outlet~;
#X obj 171 207 select 0;
#X msg 171 231 0;
#X obj 66 41 r \$0-ocarina;
#X msg 66 206 0;
#X floatatom 179 147 5 0 0 0 - - -;
#X floatatom 82 152 5 0 0 0 - - -;
#X obj 66 179 select 15;
#X text 143 182 ocarina fingering 15 is all off;
#X obj 66 121 spigot 0;
#X obj 66 312 c_adsrj myadsr;
#X msg 219 285 A 50 \, D 80 \, S 70 \, R 300;
#X obj 219 259 loadbang;
#X msg 126 207 100;
#X obj 83 376 sig~ 1;
#X obj 66 408 *~;
#X obj 163 87 tgl 15 0 empty empty empty 17 7 0 10 -262144 -1 -1 0
1;
#X connect 0 0 15 0;
#X connect 1 0 6 0;
#X connect 1 0 10 0;
#X connect 1 0 14 1;
#X connect 2 0 14 0;
#X connect 3 0 4 0;
#X connect 4 0 2 1;
#X connect 4 0 21 0;
#X connect 6 0 7 0;
#X connect 7 0 0 0;
#X connect 8 0 2 0;
#X connect 9 0 0 0;
#X connect 12 0 9 0;
#X connect 12 1 18 0;
#X connect 14 0 11 0;
#X connect 14 0 12 0;
#X connect 15 0 20 0;
#X connect 16 0 15 1;
#X connect 17 0 16 0;
#X connect 18 0 0 0;
#X connect 19 0 20 1;
#X connect 20 0 5 0;
#X restore 126 275 pd touchmode;
#N canvas 319 188 615 553 play-ocarina 0;
#X obj 170 131 ocarina-input;
#X obj 212 455 s \$0-key;
#X obj 152 234 spigot 1;
#X obj 219 212 r \$0-showprefs;
#X obj 219 234 ==;
#X obj 307 398 r \$0-root-text;
#X floatatom 326 427 5 0 0 0 - - -;
#X obj 212 423 mode-select 48;
#X obj 48 235 s \$0-ocarina;
#X floatatom 180 155 5 0 0 0 - - -;
#X obj 212 260 r \$0-touchmode-text;
#X obj 212 284 select 0 1;
#X obj 152 331 select -1;
#X msg 245 305 15;
#X msg 212 305 -1;
#X text 230 327 ocarina fingering 15 is all off.;
#X text 233 344 Wo don't use that in touchmode;
#X obj 152 33 loadbang;
#X msg 152 57 1;
#X obj 152 77 tgl 15 0 empty empty empty 17 7 0 10 -262144 -1 -1 1
1;
#X obj 152 182 change;
#X obj 152 157 f;
#X obj 259 376 r \$0-scale-text;
#X obj 120 396 random 15;
#X obj 120 373 metro 200;
#X obj 120 353 tgl 15 0 empty empty empty 17 7 0 10 -262144 -1 -1 0
1;
#X obj 152 96 metro 25;
#X connect 0 0 9 0;
#X connect 0 0 21 1;
#X connect 2 0 12 0;
#X connect 3 0 4 0;
#X connect 4 0 2 1;
#X connect 5 0 6 0;
#X connect 5 0 7 2;
#X connect 7 0 1 0;
#X connect 10 0 11 0;
#X connect 11 0 14 0;
#X connect 11 1 13 0;
#X connect 12 1 7 0;
#X connect 13 0 12 1;
#X connect 14 0 12 1;
#X connect 17 0 18 0;
#X connect 18 0 19 0;
#X connect 19 0 26 0;
#X connect 20 0 8 0;
#X connect 20 0 2 0;
#X connect 21 0 20 0;
#X connect 22 0 7 1;
#X connect 23 0 7 0;
#X connect 24 0 23 0;
#X connect 25 0 24 0;
#X connect 26 0 21 0;
#X restore 564 191 pd play-ocarina;
#N canvas 72 222 1122 595 moogish-synth 0;
#X obj 147 189 sig~ 0;
#X obj 147 164 mtof;
#X floatatom 66 122 5 0 0 0 - - -;
#X obj 147 425 e_beequad;
#X obj 287 247 mtof;
#X floatatom 298 229 5 0 0 2 filter_freq - -;
#X floatatom 375 262 5 0 500 2 key_follow% - -;
#X obj 146 213 s_osc \$0 square;
#X msg 248 160 pwmdepth 10 \, pwmfreq 2;
#X obj 248 138 loadbang;
#X obj 287 286 m_keyfollow;
#X obj 148 453 e_beequad;
#X obj 429 154 loadbang;
#X msg 475 181 100;
#X msg 429 182 110;
#X obj 221 431 u_lowpassq 500 5;
#X obj 66 71 loadbang;
#X msg 66 92 48;
#X obj 330 409 r \$0-reso;
#X obj 287 195 r \$0-filter;
#X obj 147 21 inlet;
#X obj 147 489 outlet~;
#X text 701 75 "switch <sine> <saw> <square> <tri>";
#X msg 570 113 switch 0 0 1 0;
#X obj 570 79 select 0 1 2 3;
#X obj 570 54 r \$0-waveform;
#X msg 643 186 switch 1 0 0 0;
#X obj 791 391 s \$0-s_osc;
#X floatatom 645 330 5 -1 1 0 slope - -;
#X msg 791 368 trislope \$1;
#X obj 648 303 hsl 128 15 -1 1 0 0 empty empty empty -2 -8 0 10 -262144
-1 -1 0 1;
#X obj 570 231 s \$0-s_osc;
#X obj 224 109 r \$0-s_osc;
#X text 689 112 square;
#X text 729 159 tri;
#X msg 593 135 switch 0 1 0 0;
#X msg 617 158 switch 0 0 0 1;
#X text 716 135 saw;
#X text 760 186 sine;
#X obj 791 314 c_lfo slope 0.05 40 sine;
#X obj 332 364 line 0 10;
#X obj 332 312 t a a;
#X obj 332 340 c_madsr 1 50 150 50 20;
#X obj 791 340 m_scale 0 1 -0.8 0.8;
#X obj 332 384 + 200;
#X text 389 315 not yet.;
#X connect 0 0 7 0;
#X connect 1 0 0 0;
#X connect 1 0 10 1;
#X connect 2 0 1 0;
#X connect 3 0 11 0;
#X connect 4 0 10 0;
#X connect 5 0 4 0;
#X connect 6 0 10 2;
#X connect 7 0 3 0;
#X connect 8 0 7 1;
#X connect 9 0 8 0;
#X connect 10 0 15 0;
#X connect 11 0 21 0;
#X connect 12 0 14 0;
#X connect 12 0 13 0;
#X connect 13 0 6 0;
#X connect 14 0 5 0;
#X connect 15 0 3 1;
#X connect 15 0 11 1;
#X connect 16 0 17 0;
#X connect 17 0 2 0;
#X connect 18 0 15 1;
#X connect 19 0 4 0;
#X connect 20 0 1 0;
#X connect 23 0 31 0;
#X connect 24 0 23 0;
#X connect 24 1 35 0;
#X connect 24 2 36 0;
#X connect 24 3 26 0;
#X connect 25 0 24 0;
#X connect 26 0 31 0;
#X connect 28 0 29 0;
#X connect 29 0 27 0;
#X connect 30 0 28 0;
#X connect 32 0 7 1;
#X connect 35 0 31 0;
#X connect 36 0 31 0;
#X connect 39 0 43 0;
#X connect 40 0 44 0;
#X connect 41 0 42 0;
#X connect 41 1 42 1;
#X connect 42 0 40 0;
#X connect 43 0 29 0;
#X restore 106 216 pd moogish-synth;
#X obj 106 186 r \$0-key;
#X text 33 12 Moogish synth with Ocarina inputs;
#X text 53 38 Frank Barknecht <fbar et footils.org> \, 2009;
#X text 126 247 Selected in Prefs;
#X connect 2 0 14 0;
#X connect 3 0 19 0;
#X connect 4 0 12 0;
#X connect 5 0 7 0;
#X connect 6 0 0 0;
#X connect 6 1 0 1;
#X connect 7 0 6 1;
#X connect 10 0 11 0;
#X connect 11 0 9 0;
#X connect 12 0 6 0;
#X connect 14 0 3 0;
#X connect 15 0 4 1;
#X connect 17 0 18 0;
#X connect 18 0 19 1;
#X connect 19 0 15 0;
#X connect 20 0 4 1;
#X connect 22 0 4 0;
#X connect 23 0 22 0;
