#N canvas 217 34 751 445 10;
#X obj 159 291 m_touch2grid xxxxx 10 10;
#N canvas 702 456 450 300 grid2touch 0;
#X obj 56 67 inlet;
#X obj 278 69 inlet;
#X obj 278 94 unpack 0 0;
#X obj 77 168 /;
#X obj 77 145 swap 320;
#X obj 56 195 *;
#X obj 56 218 outlet;
#X obj 145 65 inlet;
#X obj 166 166 /;
#X obj 145 193 *;
#X obj 145 216 outlet;
#X obj 166 143 swap 320;
#X connect 0 0 5 0;
#X connect 1 0 2 0;
#X connect 2 0 4 0;
#X connect 2 1 11 0;
#X connect 3 0 5 1;
#X connect 4 0 3 0;
#X connect 4 1 3 1;
#X connect 5 0 6 0;
#X connect 7 0 9 0;
#X connect 8 0 9 1;
#X connect 9 0 10 0;
#X connect 11 0 8 0;
#X connect 11 1 8 1;
#X restore 159 333 pd grid2touch;
#X floatatom 159 363 5 0 0 0 - - -;
#X floatatom 247 365 5 0 0 0 - - -;
#X text 265 334 gives uppper left corner of a grid element;
#X msg 350 250 10 10;
#X floatatom 159 123 5 0 320 0 - - -;
#X obj 162 104 hsl 128 15 0 319 0 0 empty empty empty -2 -8 0 10 -262144
-1 -1 900 1;
#X floatatom 241 260 5 0 320 0 - - -;
#X obj 241 125 vsl 15 128 319 0 0 0 empty empty empty 0 -9 0 10 -262144
-1 -1 10300 1;
#X msg 334 292 div \$1 \$2;
#X msg 504 127 320 2;
#X obj 506 153 /;
#X floatatom 537 174 5 0 0 0 - - -;
#X connect 0 0 1 0;
#X connect 0 1 1 1;
#X connect 1 0 2 0;
#X connect 1 1 3 0;
#X connect 5 0 1 2;
#X connect 5 0 10 0;
#X connect 6 0 0 0;
#X connect 7 0 6 0;
#X connect 8 0 0 1;
#X connect 9 0 8 0;
#X connect 10 0 0 2;
#X connect 11 0 12 0;
#X connect 12 0 13 0;
