#N canvas 0 0 894 640 10;
#X obj 206 149 random 100;
#X obj 206 123 t b a;
#X obj 206 203 <;
#X obj 260 178 tabread \$1;
#X obj 206 229 select 1;
#X obj 206 97 inlet;
#X obj 279 96 inlet;
#X text 278 76 seed;
#X msg 279 118 seed \$1;
#X obj 206 257 outlet;
#X obj 206 177 / 100;
#X connect 0 0 10 0;
#X connect 1 0 0 0;
#X connect 1 1 3 0;
#X connect 2 0 4 0;
#X connect 3 0 2 1;
#X connect 4 0 9 0;
#X connect 5 0 1 0;
#X connect 6 0 8 0;
#X connect 8 0 0 0;
#X connect 10 0 2 0;
