#N canvas 0 0 640 442 10;
#X obj 56 67 inlet;
#X obj 278 69 inlet;
#X obj 278 94 unpack 0 0;
#X obj 77 168 /;
#X obj 77 145 swap 320;
#X obj 56 195 *;
#X obj 56 218 outlet;
#X obj 145 65 inlet;
#X obj 166 166 /;
#X obj 145 193 *;
#X obj 145 216 outlet;
#X obj 166 143 swap 320;
#X obj 333 39 loadbang;
#X obj 333 69 list append \$1 \$2;
#X connect 0 0 5 0;
#X connect 1 0 2 0;
#X connect 2 0 4 0;
#X connect 2 1 11 0;
#X connect 3 0 5 1;
#X connect 4 0 3 0;
#X connect 4 1 3 1;
#X connect 5 0 6 0;
#X connect 7 0 9 0;
#X connect 8 0 9 1;
#X connect 9 0 10 0;
#X connect 11 0 8 0;
#X connect 11 1 8 1;
#X connect 12 0 13 0;
#X connect 13 0 2 0;
