#N canvas 400 364 667 377 10;
#X obj 45 304 outlet;
#X obj 45 41 inlet;
#X obj 293 45 inlet;
#X obj 45 260 + \$1;
#X text 41 18 major step;
#X obj 289 237 s \$0-scale;
#X obj 289 261 table \$0-scale 16;
#X text 293 24 root note;
#X obj 289 151 loadbang;
#X obj 289 214 list prepend 0;
#X msg 289 174 -5 -4 -3 -2 -1 0 2 4 5 6 7 8 9 10 11 12;
#X obj 45 175 tabread \$0-scale;
#X obj 179 41 inlet;
#X text 178 18 scale;
#X connect 1 0 11 0;
#X connect 2 0 3 1;
#X connect 3 0 0 0;
#X connect 8 0 10 0;
#X connect 9 0 5 0;
#X connect 10 0 9 0;
#X connect 11 0 3 0;
#X connect 12 0 9 0;
