#N canvas 400 364 687 476 10;
#X obj 45 304 outlet;
#X obj 45 36 inlet;
#X obj 293 42 inlet;
#X obj 45 260 + \$1;
#X text 45 18 major step;
#X obj 309 234 s \$0-scale;
#X obj 309 254 table \$0-scale 16;
#X text 293 24 root note;
#X obj 309 151 loadbang;
#X obj 309 214 list prepend 0;
#X msg 309 171 -5 -4 -3 -2 -1 0 2 4 5 6 7 8 9 10 11 12;
#X obj 45 175 tabread \$0-scale;
#X obj 178 36 inlet;
#X text 178 18 scale;
#X text 395 150 default scale: Ionian;
#N canvas 0 0 894 683 select-scale 0;
#X msg 64 177 -5 -4 -3 -2 -1 0 2 4 5 6 7 8 9 10 11 12;
#X text 352 176 Ionian;
#X obj 64 103 select Ionian Dorian Phrygian Lydian Mixolydian Aeolian
Locrian Zeldarian;
#X obj 64 356 outlet;
#X text 352 193 Dorian (Gray?);
#X msg 64 197 -5 -4 -3 -2 -1 0 2 3 5 6 7 8 9 10 10 12;
#X text 352 210 Phrygian;
#X text 622 181 0: C;
#X text 622 198 1: C#;
#X text 622 215 2: D;
#X text 622 232 3: D#;
#X text 622 249 4: E;
#X text 622 266 5: F/E#;
#X text 622 283 6: F#;
#X text 622 300 7: G;
#X text 622 317 8: G#;
#X text 622 334 9: A;
#X text 622 351 10: A#;
#X text 622 368 11: B;
#X text 622 385 12: C;
#X text 616 162 -1: b;
#X text 616 145 -2: a#;
#X text 616 128 -3: a;
#X text 616 111 -4: g#;
#X text 616 94 -5: g;
#X text 616 77 -6: f#;
#X msg 64 217 -5 -4 -3 -2 -1 0 1 3 5 6 7 8 8 10 10 12;
#X text 354 241 Lydian;
#X msg 64 237 -5 -4 -3 -2 -1 0 2 4 6 6 7 8 9 10 11 12;
#X text 354 258 Mixolydian;
#X msg 64 257 -5 -4 -3 -2 -1 0 2 3 5 6 7 8 9 10 11 12;
#X msg 115 592 -5 -4 -3 -2 -1 0 2 3 5 6 7 8 9 10 11 12;
#X text 112 559 The Aeolian in the reference PDF (2009/03/24) seems
to be wrong:;
#X msg 64 277 -5 -4 -3 -2 -1 0 2 3 5 6 7 9 8 10 11 12;
#X text 354 275 Aeolian (fixed by switching 9 and 8);
#X text 354 292 Locrian;
#X msg 64 297 -5 -4 -3 -2 -1 0 1 3 5 6 6 8 8 10 10 12;
#X text 356 325 Zeldarian;
#X msg 64 317 -5 -1 0 2 3 4 5 6 7 8 9 10 11 12 14 15;
#X text 622 402 13: C#;
#X text 622 419 14: D;
#X text 622 436 15: D#;
#X obj 64 83 list;
#X obj 64 62 inlet;
#X obj 446 519 print Scales;
#X msg 446 483 Possible scales: Ionian Dorian Phrygian Lydian Mixolydian
Aeolian Locrian Zeldarian;
#X text 99 539 Note:;
#X connect 0 0 3 0;
#X connect 2 0 0 0;
#X connect 2 1 5 0;
#X connect 2 2 26 0;
#X connect 2 3 28 0;
#X connect 2 4 30 0;
#X connect 2 5 33 0;
#X connect 2 6 36 0;
#X connect 2 7 38 0;
#X connect 2 8 45 0;
#X connect 5 0 3 0;
#X connect 26 0 3 0;
#X connect 28 0 3 0;
#X connect 30 0 3 0;
#X connect 33 0 3 0;
#X connect 36 0 3 0;
#X connect 38 0 3 0;
#X connect 42 0 2 0;
#X connect 43 0 42 0;
#X connect 45 0 44 0;
#X restore 178 175 pd select-scale;
#X text 179 251 Ionian;
#X text 179 285 Phrygian;
#X text 179 302 Lydian;
#X text 179 319 Mixolydian;
#X text 179 353 Locrian;
#X text 179 370 Zeldarian;
#X text 179 268 Dorian;
#X text 179 336 Aeolian;
#X connect 1 0 11 0;
#X connect 2 0 3 1;
#X connect 3 0 0 0;
#X connect 8 0 10 0;
#X connect 9 0 5 0;
#X connect 10 0 9 0;
#X connect 11 0 3 0;
#X connect 12 0 15 0;
#X connect 15 0 9 0;
