#N canvas 381 185 692 418 10;
#X obj 63 44 osc~ 400;
#X obj 160 48 adc~;
#X obj 160 71 env~;
#X obj 72 101 *~;
#X obj 71 182 dac~;
#X obj 161 114 clip 0 30;
#X obj 162 134 / 30;
#X obj 215 67 * -1;
#X obj 215 88 + 100;
#X obj 160 94 +;
#X msg 214 46 70;
#X floatatom 178 211 5 0 0 0 - - -;
#X obj 161 157 follower;
#X obj 214 24 loadbang;
#X text 210 3 threshold (between 0 and 100);
#X connect 0 0 3 0;
#X connect 1 0 2 0;
#X connect 2 0 9 0;
#X connect 3 0 4 0;
#X connect 5 0 6 0;
#X connect 6 0 12 0;
#X connect 7 0 8 0;
#X connect 7 0 9 1;
#X connect 8 0 5 2;
#X connect 8 0 6 1;
#X connect 9 0 5 0;
#X connect 10 0 7 0;
#X connect 12 0 11 0;
#X connect 12 0 3 1;
#X connect 13 0 10 0;
