#N canvas 0 0 1124 908 10;
#X declare -path .;
#X obj 206 75 tgl 15 0 empty empty empty 17 7 0 10 -262144 -1 -1 1
1;
#X obj 218 184 hradio 12 1 0 32 empty empty empty 0 -8 0 10 -262144
-1 -1 23;
#N canvas 0 0 373 343 dump-pattern 0;
#X obj 99 184 textfile;
#X obj 99 236 list split 0;
#X obj 99 152 until;
#X obj 99 128 t b b a;
#X msg 139 152 rewind;
#X obj 150 205 b;
#X obj 99 74 inlet;
#X obj 138 293 outlet;
#X obj 282 77 inlet;
#X msg 282 151 read \$1 cr;
#X obj 282 129 openpanel;
#X obj 157 72 inlet;
#X obj 138 264 list split 1;
#X connect 0 0 1 0;
#X connect 0 1 5 0;
#X connect 1 1 12 0;
#X connect 2 0 0 0;
#X connect 3 0 2 0;
#X connect 3 1 4 0;
#X connect 3 2 1 1;
#X connect 4 0 0 0;
#X connect 5 0 2 1;
#X connect 6 0 3 0;
#X connect 8 0 10 0;
#X connect 9 0 0 0;
#X connect 10 0 9 0;
#X connect 11 0 0 0;
#X connect 12 0 7 0;
#X restore 206 308 pd dump-pattern;
#X obj 206 327 s \$0-hit;
#X obj 306 286 bng 15 250 50 0 empty empty load 18 5 1 10 -24198 -1
-1;
#X msg 256 284 print;
#N canvas 663 196 587 412 swing 0;
#X obj 202 71 swap 60000;
#X obj 202 108 /;
#X obj 202 127 / 4;
#X obj 202 159 t a a;
#X obj 202 272 pack 0 0;
#X obj 232 213 -;
#X obj 285 112 t b a a;
#X obj 202 353 outlet;
#X obj 202 244 * 1;
#X obj 233 190 swap 1;
#X obj 232 238 + 1;
#X obj 279 220 * 1;
#X obj 285 44 inlet;
#X obj 202 47 inlet;
#X connect 0 0 1 0;
#X connect 0 1 1 1;
#X connect 1 0 2 0;
#X connect 2 0 3 0;
#X connect 3 0 8 0;
#X connect 3 1 11 0;
#X connect 4 0 7 0;
#X connect 5 0 10 0;
#X connect 6 0 2 0;
#X connect 6 1 9 0;
#X connect 6 2 11 1;
#X connect 8 0 4 0;
#X connect 9 0 5 0;
#X connect 9 1 5 1;
#X connect 10 0 8 1;
#X connect 11 0 4 1;
#X connect 12 0 6 0;
#X connect 13 0 0 0;
#X restore 331 91 pd swing;
#X obj 239 264 r \$0-pattern;
#N canvas 495 333 785 474 switch-pattern 0;
#X obj 42 387 list;
#X msg 42 411 read \$1 cr;
#X obj 42 434 s \$0-pattern;
#X msg 90 34 pat/2step-1.txt;
#X msg 91 57 pat/2step-2.txt;
#X msg 90 97 pat/drumbass-1.txt;
#X msg 88 118 pat/drumbass-2.txt;
#X msg 88 138 pat/drumbass-3.txt;
#X msg 88 160 pat/drumbass-4.txt;
#X msg 88 180 pat/dubstep-1.txt;
#X msg 86 200 pat/dubstep-2.txt;
#X msg 86 222 pat/dubstep-3-rushy.txt;
#X msg 86 244 pat/pattern.txt;
#X msg 86 264 pat/prodigy.txt;
#X msg 87 342 pat/simple-hiphop-doublebass.txt;
#X msg 87 319 pat/simple-hiphop-offbeat.txt;
#X msg 84 297 pat/simple-hiphop.txt;
#N canvas 0 0 759 571 get-length 0;
#X obj 113 53 inlet;
#X obj 111 178 textfile;
#X obj 112 86 t b b a b;
#X obj 111 146 until;
#X msg 164 147 read \$1 cr \, rewind;
#X obj 111 251 s \$0-len;
#X obj 111 202 route length bpm swing;
#X obj 186 252 s \$0-bpm;
#X obj 255 253 s \$0-swing;
#X connect 0 0 2 0;
#X connect 1 0 6 0;
#X connect 1 1 3 1;
#X connect 2 1 3 0;
#X connect 2 2 4 0;
#X connect 3 0 1 0;
#X connect 4 0 1 0;
#X connect 6 0 5 0;
#X connect 6 1 7 0;
#X connect 6 2 8 0;
#X restore 133 382 pd get-length;
#X obj 319 60 select 0;
#X obj 325 18 r \$0-beat;
#X floatatom 404 72 5 0 0 0 - - -;
#X symbolatom 140 415 20 0 0 0 - - -;
#X obj 324 40 spigot;
#X obj 379 42 tgl 15 0 empty empty empty 17 7 0 10 -262144 -1 -1 0
1;
#X msg 91 77 pat/leavehome.txt;
#X obj 90 11 loadbang;
#X obj 317 105 select 0 1 2 3 4 5 6 7 8 9 10 11 12 13 14;
#X obj 318 79 random 15;
#X obj 463 69 inlet;
#X connect 0 0 1 0;
#X connect 0 0 17 0;
#X connect 0 0 21 0;
#X connect 1 0 2 0;
#X connect 3 0 0 0;
#X connect 4 0 0 0;
#X connect 5 0 0 0;
#X connect 6 0 0 0;
#X connect 7 0 0 0;
#X connect 8 0 0 0;
#X connect 9 0 0 0;
#X connect 10 0 0 0;
#X connect 11 0 0 0;
#X connect 12 0 0 0;
#X connect 13 0 0 0;
#X connect 14 0 0 0;
#X connect 15 0 0 0;
#X connect 16 0 0 0;
#X connect 18 0 27 0;
#X connect 19 0 22 0;
#X connect 22 0 18 0;
#X connect 23 0 22 1;
#X connect 24 0 0 0;
#X connect 25 0 3 0;
#X connect 26 0 5 0;
#X connect 26 1 6 0;
#X connect 26 2 7 0;
#X connect 26 3 8 0;
#X connect 26 4 9 0;
#X connect 26 5 10 0;
#X connect 26 6 11 0;
#X connect 26 7 12 0;
#X connect 26 8 3 0;
#X connect 26 9 4 0;
#X connect 26 10 24 0;
#X connect 26 11 13 0;
#X connect 26 12 16 0;
#X connect 26 13 15 0;
#X connect 26 14 14 0;
#X connect 27 0 20 0;
#X connect 27 0 26 0;
#X connect 28 0 26 0;
#X restore 590 90 pd switch-pattern;
#X obj 236 243 s \$0-beat;
#X obj 206 220 t a a;
#X obj 249 108 r \$0-len;
#X msg 158 124 set 0;
#X floatatom 331 71 5 0 0 0 bpm - -;
#X floatatom 421 70 5 0 0 0 swing - -;
#X obj 331 19 r \$0-bpm;
#X obj 421 18 r \$0-swing;
#X msg 343 116 set \$1 \$2;
#X msg 343 138 160.8 79.2;
#X floatatom 257 129 5 0 0 0 - - -;
#X obj 397 47 tgl 15 0 empty empty empty 17 7 0 10 -262144 -1 -1 0
1;
#X obj 489 45 tgl 15 0 empty empty empty 17 7 0 10 -262144 -1 -1 0
1;
#X obj 260 16 loadbang;
#X msg 260 42 125;
#X obj 31 32 declare -path .;
#X obj 206 152 c_multimetro 32 120;
#X obj 214 576 s_drumelectro;
#X obj 252 374 r \$0-hit;
#X symbolatom 252 402 10 0 0 0 - - -;
#X obj 214 421 r \$0-hit;
#X obj 213 443 list trim;
#X msg 341 512 hh 120;
#X msg 276 509 sn 120;
#X msg 295 533 sn 240;
#X msg 214 511 bd 120;
#X msg 233 535 bd 240;
#X msg 360 536 oh 1500;
#X obj 213 467 route b B s S h H c C;
#X msg 426 509 cp 90;
#X msg 445 533 cp 120;
#X obj 606 54 inlet;
#X obj 421 45 spigot 1;
#X obj 331 45 spigot 1;
#X obj 206 40 inlet;
#X obj 214 604 e_pan 0.5;
#X obj 273 628 throw~ \$0-r;
#X obj 213 649 throw~ \$0-l;
#X obj 198 722 catch~ \$0-l;
#X obj 308 720 catch~ \$0-r;
#X obj 197 750 outlet~;
#X obj 308 747 outlet~;
#X obj 366 581 s_drumelectro;
#X obj 425 633 throw~ \$0-r;
#X obj 365 654 throw~ \$0-l;
#X obj 696 586 s_drumelectro;
#X obj 696 614 e_pan 0.5;
#X obj 755 638 throw~ \$0-r;
#X obj 695 659 throw~ \$0-l;
#X obj 535 586 s_drumelectro;
#X obj 594 638 throw~ \$0-r;
#X obj 534 659 throw~ \$0-l;
#X obj 535 614 e_pan 0.6;
#X obj 366 609 e_pan 0.4;
#X obj 114 197 s DRUMBEAT;
#X connect 0 0 25 0;
#X connect 2 0 3 0;
#X connect 4 0 2 2;
#X connect 5 0 2 1;
#X connect 6 0 17 0;
#X connect 6 0 25 2;
#X connect 7 0 2 1;
#X connect 10 0 2 0;
#X connect 10 1 9 0;
#X connect 11 0 19 0;
#X connect 11 0 25 1;
#X connect 12 0 25 0;
#X connect 13 0 6 0;
#X connect 14 0 6 1;
#X connect 15 0 42 0;
#X connect 16 0 41 0;
#X connect 17 0 18 0;
#X connect 20 0 42 1;
#X connect 21 0 41 1;
#X connect 22 0 23 0;
#X connect 23 0 13 0;
#X connect 25 0 10 0;
#X connect 25 0 1 0;
#X connect 25 0 63 0;
#X connect 26 0 44 0;
#X connect 27 0 28 0;
#X connect 29 0 30 0;
#X connect 30 0 37 0;
#X connect 31 0 58 0;
#X connect 32 0 51 0;
#X connect 33 0 51 0;
#X connect 34 0 26 0;
#X connect 35 0 26 0;
#X connect 36 0 58 0;
#X connect 37 0 34 0;
#X connect 37 1 35 0;
#X connect 37 2 32 0;
#X connect 37 3 33 0;
#X connect 37 4 31 0;
#X connect 37 5 36 0;
#X connect 37 6 38 0;
#X connect 37 7 39 0;
#X connect 38 0 54 0;
#X connect 39 0 54 0;
#X connect 40 0 8 0;
#X connect 41 0 14 0;
#X connect 42 0 13 0;
#X connect 43 0 0 0;
#X connect 44 0 46 0;
#X connect 44 1 45 0;
#X connect 47 0 49 0;
#X connect 48 0 50 0;
#X connect 51 0 62 0;
#X connect 54 0 55 0;
#X connect 55 0 57 0;
#X connect 55 1 56 0;
#X connect 58 0 61 0;
#X connect 61 0 60 0;
#X connect 61 1 59 0;
#X connect 62 0 53 0;
#X connect 62 1 52 0;
