#N canvas 0 0 450 300 10;
#X obj 271 211 tgl 15 0 empty empty empty 17 7 0 10 -262144 -1 -1 0
1;
#X obj 169 212 show;
#X msg 170 235 up 1 30 197;
#X obj 111 233 print;
#X obj 169 178 netreceive 6000 1;
#X connect 1 0 2 0;
#X connect 4 0 1 0;
#X connect 4 0 3 0;
