#N canvas 223 103 847 848 10;
#X obj 110 94 r #touch;
#X floatatom 346 298 5 0 0 1 index - -;
#X obj 150 272 m_touch2grid ocarina 10 10;
#X obj 329 365 pack 0 0;
#X text 257 128 <f> <x> <y>;
#X obj 110 235 unpack 0 0 0;
#X obj 182 149 t a b;
#X msg 214 170 0;
#X obj 110 142 t a b;
#X msg 143 163 1;
#X obj 329 454 s \$0-fingers;
#X obj 519 56 route 1 2 3;
#X obj 592 76 route 11 12 13;
#X obj 625 107 route 21 22 23;
#X obj 519 31 r \$0-fingers;
#X obj 521 220 r \$0-fingers;
#X obj 521 245 route 6 7 8;
#X obj 594 265 route 16 17 18;
#X obj 627 296 route 26 27 28;
#X obj 524 572 r \$0-fingers;
#X obj 524 597 route 66 67 68;
#X obj 597 617 route 76 77 78;
#X obj 630 648 route 86 87 88;
#X obj 522 392 r \$0-fingers;
#X obj 522 417 route 61 62 63;
#X obj 595 437 route 71 72 73;
#X obj 628 468 route 81 82 83;
#X obj 82 455 << 0;
#X obj 92 536 << 2;
#X floatatom 82 480 5 0 0 0 - - -;
#X floatatom 168 479 5 0 0 0 - - -;
#X floatatom 92 561 5 0 0 0 - - -;
#X floatatom 179 561 5 0 0 0 - - -;
#X floatatom 91 722 5 0 0 0 - - -;
#X obj 179 539 << 3;
#X floatatom 103 667 5 0 0 0 - - -;
#X obj 168 453 << 1;
#X obj 223 538 tgl 15 0 empty empty empty 17 7 0 10 -262144 -1 -1 0
1;
#X obj 126 540 tgl 15 0 empty empty empty 17 7 0 10 -262144 -1 -1 0
1;
#X obj 206 456 tgl 15 0 empty empty empty 17 7 0 10 -262144 -1 -1 0
1;
#X obj 117 458 tgl 15 0 empty empty empty 17 7 0 10 -262144 -1 -1 0
1;
#N canvas 0 0 450 300 add4------- 0;
#X obj 96 71 inlet;
#X obj 95 237 +;
#X obj 316 190 +;
#X obj 381 161 +;
#X obj 139 71 inlet;
#X obj 294 71 inlet;
#X obj 372 72 inlet;
#X obj 95 264 outlet;
#X obj 372 99 t b b b a;
#X obj 294 102 t b b a;
#X obj 139 101 t b a;
#X connect 0 0 1 0;
#X connect 1 0 7 0;
#X connect 2 0 1 1;
#X connect 3 0 2 1;
#X connect 4 0 10 0;
#X connect 5 0 9 0;
#X connect 6 0 8 0;
#X connect 8 0 1 0;
#X connect 8 1 2 0;
#X connect 8 2 3 0;
#X connect 8 3 3 1;
#X connect 9 0 1 0;
#X connect 9 1 2 0;
#X connect 9 2 3 0;
#X connect 10 0 1 0;
#X connect 10 1 2 0;
#X restore 82 638 pd add4-------;
#N canvas 206 58 1007 364 ocarina-fingerings 0;
#X obj 50 140 - 1;
#X obj 50 119 unpack 0 0;
#X msg 50 86 1 10 \, 2 1 \, 3 9 \, 4 3 \, 5 11 \, 6 15 \, 7 13 \, 8
7 \, 9 5 \, 10 14 \, 11 12 \, 12 6 \, 13 4 \, 14 8 \, 15 2 \, 16 0
;
#X obj 50 56 loadbang;
#X obj 207 166 table \$0-fingering 16;
#X obj 50 165 tabwrite \$0-fingering;
#X text 60 256 o x;
#X text 60 240 o x;
#X text 63 220 1;
#X text 119 222 2;
#X text 187 221 3;
#X text 236 221 4;
#X text 290 222 5;
#X text 355 220 6;
#X text 404 220 7;
#X text 120 256 o o;
#X text 120 240 x o;
#X text 185 239 x o;
#X text 185 255 o x;
#X text 234 257 o o;
#X text 234 241 x x;
#X text 288 240 x x;
#X text 288 256 o x;
#X text 347 239 x x;
#X text 347 255 x x;
#X text 402 256 x x;
#X text 402 240 x o;
#X text 460 219 8;
#X text 458 239 x x;
#X text 458 255 x o;
#X text 512 254 x o;
#X text 514 218 9;
#X text 512 238 x o;
#X text 572 217 10;
#X text 570 237 o x;
#X text 570 253 x x;
#X text 619 254 x x;
#X text 621 218 11;
#X text 619 238 o o;
#X text 681 218 12;
#X text 679 238 o x;
#X text 679 254 x o;
#X text 733 254 x o;
#X text 735 218 13;
#X text 733 238 o o;
#X text 785 238 o o;
#X text 785 254 o x;
#X text 787 218 14;
#X text 835 254 o o;
#X text 835 238 o x;
#X text 885 254 o o;
#X text 837 218 15;
#X text 887 218 16;
#X text 885 238 o o;
#X text 61 299 We use zero-based notes however!;
#X connect 0 0 5 0;
#X connect 1 0 0 0;
#X connect 1 1 5 1;
#X connect 2 0 1 0;
#X connect 3 0 2 0;
#X restore 61 39 pd ocarina-fingerings;
#X obj 524 707 s \$0-HOLE-3;
#X obj 179 513 r \$0-HOLE-3;
#X obj 92 512 r \$0-HOLE-2;
#X obj 168 431 r \$0-HOLE-1;
#X obj 82 431 r \$0-HOLE-0;
#X obj 519 166 s \$0-HOLE-0;
#X obj 521 355 s \$0-HOLE-1;
#X obj 522 527 s \$0-HOLE-2;
#X obj 82 695 tabread \$0-fingering;
#X obj 82 754 outlet;
#X obj 141 751 + 1;
#X floatatom 141 773 5 0 0 0 - - -;
#X obj 110 115 route down xy up;
#X connect 0 0 55 0;
#X connect 2 2 1 0;
#X connect 2 2 3 0;
#X connect 3 0 10 0;
#X connect 5 1 2 0;
#X connect 5 2 2 1;
#X connect 6 0 5 0;
#X connect 6 1 7 0;
#X connect 7 0 3 1;
#X connect 8 0 5 0;
#X connect 8 1 9 0;
#X connect 9 0 3 1;
#X connect 11 0 48 0;
#X connect 11 1 48 0;
#X connect 11 2 48 0;
#X connect 11 3 12 0;
#X connect 12 0 48 0;
#X connect 12 1 48 0;
#X connect 12 2 48 0;
#X connect 12 3 13 0;
#X connect 13 0 48 0;
#X connect 13 1 48 0;
#X connect 13 2 48 0;
#X connect 14 0 11 0;
#X connect 15 0 16 0;
#X connect 16 0 49 0;
#X connect 16 1 49 0;
#X connect 16 2 49 0;
#X connect 16 3 17 0;
#X connect 17 0 49 0;
#X connect 17 1 49 0;
#X connect 17 2 49 0;
#X connect 17 3 18 0;
#X connect 18 0 49 0;
#X connect 18 1 49 0;
#X connect 18 2 49 0;
#X connect 19 0 20 0;
#X connect 20 0 43 0;
#X connect 20 1 43 0;
#X connect 20 2 43 0;
#X connect 20 3 21 0;
#X connect 21 0 43 0;
#X connect 21 1 43 0;
#X connect 21 2 43 0;
#X connect 21 3 22 0;
#X connect 22 0 43 0;
#X connect 22 1 43 0;
#X connect 22 2 43 0;
#X connect 23 0 24 0;
#X connect 24 0 50 0;
#X connect 24 1 50 0;
#X connect 24 2 50 0;
#X connect 24 3 25 0;
#X connect 25 0 50 0;
#X connect 25 1 50 0;
#X connect 25 2 50 0;
#X connect 25 3 26 0;
#X connect 26 0 50 0;
#X connect 26 1 50 0;
#X connect 26 2 50 0;
#X connect 27 0 29 0;
#X connect 28 0 31 0;
#X connect 29 0 41 0;
#X connect 30 0 41 1;
#X connect 31 0 41 2;
#X connect 32 0 41 3;
#X connect 33 0 53 0;
#X connect 34 0 32 0;
#X connect 36 0 30 0;
#X connect 37 0 34 0;
#X connect 38 0 28 0;
#X connect 39 0 36 0;
#X connect 40 0 27 0;
#X connect 41 0 35 0;
#X connect 41 0 51 0;
#X connect 44 0 34 0;
#X connect 45 0 28 0;
#X connect 46 0 36 0;
#X connect 47 0 27 0;
#X connect 51 0 33 0;
#X connect 51 0 52 0;
#X connect 53 0 54 0;
#X connect 55 0 8 0;
#X connect 55 1 8 0;
#X connect 55 2 6 0;
