#N canvas 150 79 687 456 10;
#X obj 172 88 soundinput;
#X obj 158 397 soundoutput;
#X obj 164 317 e_beequad myfilter;
#X obj 163 230 s_osc myoscillator square;
#X obj 368 276 m_keyfollow;
#X obj 163 202 mtof;
#X floatatom 163 179 5 0 0 0 key_freq - -;
#X floatatom 368 187 5 0 0 0 filter_freq - -;
#X obj 368 208 mtof;
#X floatatom 439 308 5 0 0 0 Q - -;
#X text 492 310 resonance !!;
#X floatatom 467 276 5 0 0 1 key_follow_amount - -;
#X text 221 350 Ah \, better.;
#X obj 162 349 *~ 0.2;
#X obj 330 304 u_lowpassq;
#X text 357 98 That's it!. Bye;
#X connect 2 0 13 0;
#X connect 3 0 2 0;
#X connect 4 0 14 0;
#X connect 5 0 3 0;
#X connect 5 0 4 1;
#X connect 6 0 5 0;
#X connect 7 0 8 0;
#X connect 8 0 4 0;
#X connect 9 0 14 1;
#X connect 11 0 4 2;
#X connect 13 0 1 0;
#X connect 13 0 1 1;
#X connect 14 0 2 1;
